  0
SECTION
  2
HEADER
  9
$ACADVER
  1
AC1009
  9
$DWGCODEPAGE
  3
ansi_1252
  9
$INSBASE
 10
0.0
 20
0.0
 30
0.0
  9
$EXTMIN
 10
0.0
 20
0.0
 30
0.0
  9
$EXTMAX
 10
2.0
 20
3.0
 30
0.0
  9
$LIMMIN
 10
0.0
 20
0.0
  9
$LIMMAX
 10
12.0
 20
9.0
  9
$ORTHOMODE
 70
     0
  9
$REGENMODE
 70
     1
  9
$FILLMODE
 70
     1
  9
$QTEXTMODE
 70
     0
  9
$MIRRTEXT
 70
     1
  9
$DRAGMODE
 70
     2
  9
$LTSCALE
 40
1.0
  9
$OSMODE
 70
    37
  9
$ATTMODE
 70
     1
  9
$TEXTSIZE
 40
0.2
  9
$TRACEWID
 40
0.05
  9
$TEXTSTYLE
  7
STANDARD
  9
$CLAYER
  8
0
  9
$CELTYPE
  6
BYLAYER
  9
$CECOLOR
 62
   256
  9
$DIMSCALE
 40
1.0
  9
$DIMASZ
 40
0.18
  9
$DIMEXO
 40
0.0625
  9
$DIMDLI
 40
0.38
  9
$DIMRND
 40
0.0
  9
$DIMDLE
 40
0.0
  9
$DIMEXE
 40
0.18
  9
$DIMTP
 40
0.0
  9
$DIMTM
 40
0.0
  9
$DIMTXT
 40
0.18
  9
$DIMCEN
 40
0.09
  9
$DIMTSZ
 40
0.0
  9
$DIMTOL
 70
     0
  9
$DIMLIM
 70
     0
  9
$DIMTIH
 70
     1
  9
$DIMTOH
 70
     1
  9
$DIMSE1
 70
     0
  9
$DIMSE2
 70
     0
  9
$DIMTAD
 70
     0
  9
$DIMZIN
 70
     0
  9
$DIMBLK
  1

  9
$DIMASO
 70
     1
  9
$DIMSHO
 70
     1
  9
$DIMPOST
  1

  9
$DIMAPOST
  1

  9
$DIMALT
 70
     0
  9
$DIMALTD
 70
     2
  9
$DIMALTF
 40
25.4
  9
$DIMLFAC
 40
1.0
  9
$DIMTOFL
 70
     0
  9
$DIMTVP
 40
0.0
  9
$DIMTIX
 70
     0
  9
$DIMSOXD
 70
     0
  9
$DIMSAH
 70
     0
  9
$DIMBLK1
  1

  9
$DIMBLK2
  1

  9
$DIMSTYLE
  2
STANDARD
  9
$DIMCLRD
 70
     0
  9
$DIMCLRE
 70
     0
  9
$DIMCLRT
 70
     0
  9
$DIMTFAC
 40
1.0
  9
$DIMGAP
 40
0.09
  9
$LUNITS
 70
     2
  9
$LUPREC
 70
     4
  9
$SKETCHINC
 40
0.1
  9
$FILLETRAD
 40
0.5
  9
$AUNITS
 70
     0
  9
$AUPREC
 70
     0
  9
$MENU
  1
.
  9
$ELEVATION
 40
0.0
  9
$PELEVATION
 40
0.0
  9
$THICKNESS
 40
0.0
  9
$LIMCHECK
 70
     0
  9
$CHAMFERA
 40
0.0
  9
$CHAMFERB
 40
0.0
  9
$SKPOLY
 70
     0
  9
$TDCREATE
 40
2454910.5
  9
$TDUPDATE
 40
2457378.131778727
  9
$TDINDWG
 40
0.0000000116
  9
$TDUSRTIMER
 40
0.0000000116
  9
$USRTIMER
 70
     1
  9
$ANGBASE
 50
0.0
  9
$ANGDIR
 70
     0
  9
$PDMODE
 70
     0
  9
$PDSIZE
 40
0.0
  9
$PLINEWID
 40
0.0
  9
$COORDS
 70
     1
  9
$SPLFRAME
 70
     0
  9
$SPLINETYPE
 70
     6
  9
$SPLINESEGS
 70
     8
  9
$ATTDIA
 70
     0
  9
$ATTREQ
 70
     1
  9
$HANDLING
 70
     1
  9
$HANDSEED
  5
3D8
  9
$SURFTAB1
 70
     6
  9
$SURFTAB2
 70
     6
  9
$SURFTYPE
 70
     6
  9
$SURFU
 70
     6
  9
$SURFV
 70
     6
  9
$UCSNAME
  2

  9
$UCSORG
 10
0.0
 20
0.0
 30
0.0
  9
$UCSXDIR
 10
1.0
 20
0.0
 30
0.0
  9
$UCSYDIR
 10
0.0
 20
1.0
 30
0.0
  9
$PUCSNAME
  2

  9
$PUCSORG
 10
0.0
 20
0.0
 30
0.0
  9
$PUCSXDIR
 10
1.0
 20
0.0
 30
0.0
  9
$PUCSYDIR
 10
0.0
 20
1.0
 30
0.0
  9
$USERI1
 70
     0
  9
$USERI2
 70
     0
  9
$USERI3
 70
     0
  9
$USERI4
 70
     0
  9
$USERI5
 70
     0
  9
$USERR1
 40
0.0
  9
$USERR2
 40
0.0
  9
$USERR3
 40
0.0
  9
$USERR4
 40
0.0
  9
$USERR5
 40
0.0
  9
$WORLDVIEW
 70
     1
  9
$SHADEDGE
 70
     3
  9
$SHADEDIF
 70
    70
  9
$TILEMODE
 70
     1
  9
$MAXACTVP
 70
    64
  9
$PLIMCHECK
 70
     0
  9
$PEXTMIN
 10
1.000000000000000E+20
 20
1.000000000000000E+20
 30
1.000000000000000E+20
  9
$PEXTMAX
 10
-1.000000000000000E+20
 20
-1.000000000000000E+20
 30
-1.000000000000000E+20
  9
$PLIMMIN
 10
0.0
 20
0.0
  9
$PLIMMAX
 10
12.0
 20
9.0
  9
$UNITMODE
 70
     0
  9
$VISRETAIN
 70
     1
  9
$PLINEGEN
 70
     0
  9
$PSLTSCALE
 70
     1
  0
ENDSEC
  0
SECTION
  2
TABLES
  0
TABLE
  2
VPORT
 70
     1
  0
VPORT
  2
*ACTIVE
 70
     0
 10
0.0
 20
0.0
 11
1.0
 21
1.0
 12
10.42990654205607
 22
4.5
 13
0.0
 23
0.0
 14
0.5
 24
0.5
 15
0.5
 25
0.5
 16
0.0
 26
0.0
 36
1.0
 17
0.0
 27
0.0
 37
0.0
 40
9.0
 41
1.972972972850329
 42
50.0
 43
0.0
 44
0.0
 50
0.0
 51
0.0
 71
     0
 72
   100
 73
     1
 74
     3
 75
     0
 76
     0
 77
     0
 78
     0
  0
ENDTAB
  0
TABLE
  2
LTYPE
 70
     2
  0
LTYPE
  2
CONTINUOUS
 70
     0
  3
Solid line
 72
    65
 73
     0
 40
0.0
  0
LTYPE
  2
CONTINUOUS2
 70
     0
  3
Solid Line
 72
    65
 73
     0
 40
0.0
  0
ENDTAB
  0
TABLE
  2
LAYER
 70
     3
  0
LAYER
  2
0
 70
     0
 62
     7
  6
CONTINUOUS
  0
LAYER
  2
LAYER_1
 70
     0
 62
    18
  6
CONTINUOUS
  0
LAYER
  2
IMPORT_-_POUR_GUYS_INC_FIN
 70
     0
 62
    18
  6
CONTINUOUS
  0
ENDTAB
  0
TABLE
  2
STYLE
 70
     1
  0
STYLE
  2
STANDARD
 70
     0
 40
0.0
 41
1.0
 50
0.0
 71
     0
 42
0.2
  3
txt
  4

  0
ENDTAB
  0
TABLE
  2
VIEW
 70
     0
  0
ENDTAB
  0
TABLE
  2
UCS
 70
     0
  0
ENDTAB
  0
TABLE
  2
APPID
 70
     1
  0
APPID
  2
ACAD
 70
     0
  0
ENDTAB
  0
TABLE
  2
DIMSTYLE
 70
     1
  0
DIMSTYLE
  2
STANDARD
 70
     0
  3

  4

  5

  6

  7

 40
1.0
 41
0.18
 42
0.0625
 43
0.38
 44
0.18
 45
0.0
 46
0.0
 47
0.0
 48
0.0
140
0.18
141
0.09
142
0.0
143
25.4
144
1.0
145
0.0
146
1.0
147
0.09
 71
     0
 72
     0
 73
     1
 74
     1
 75
     0
 76
     0
 77
     0
 78
     0
170
     0
171
     2
172
     0
173
     0
174
     0
175
     0
176
     0
177
     0
178
     0
  0
ENDTAB
  0
ENDSEC
  0
SECTION
  2
BLOCKS
  0
BLOCK
  8
0
  2
$MODEL_SPACE
 70
     0
 10
0.0
 20
0.0
 30
0.0
  3
$MODEL_SPACE
  1

  0
ENDBLK
  5
21
  8
0
  0
BLOCK
 67
     1
  8
0
  2
$PAPER_SPACE
 70
     0
 10
0.0
 20
0.0
 30
0.0
  3
$PAPER_SPACE
  1

  0
ENDBLK
  5
1D
 67
     1
  8
0
  0
ENDSEC
  0
SECTION
  2
ENTITIES
  0
POLYLINE
  5
70
  8
LAYER_1
 66
     1
 10
0.0
 20
0.0
 30
0.0
 70
     1
  0
VERTEX
  5
80
  8
LAYER_1
 10
0.0
 20
0.0
 30
0.0
  0
VERTEX
  5
81
  8
LAYER_1
 10
1.0
 20
3.0
 30
0.0
  0
VERTEX
  5
82
  8
LAYER_1
 10
2.0
 20
0.0
 30
0.0
  0
SEQEND
  5
3D0
  8
LAYER_1
  0
POLYLINE
  5
71
  8
LAYER_1
 66
     1
 10
0.0
 20
0.0
 30
0.0
 70
     1
  0
VERTEX
  5
83
  8
LAYER_1
 10
0.0
 20
0.0
 30
0.0
  0
VERTEX
  5
84
  8
LAYER_1
 10
2.0
 20
0.0
 30
0.0
  0
VERTEX
  5
85
  8
LAYER_1
 10
2.0
 20
2.5
 30
0.0
  0
VERTEX
  5
86
  8
LAYER_1
 10
0.0
 20
2.5
 30
0.0
  0
SEQEND
  5
3D1
  8
LAYER_1
  0
POLYLINE
  5
73
  8
IMPORT_-_POUR_GUYS_INC_FIN
 66
     1
 10
0.0
 20
0.0
 30
0.0
 70
     1
  0
VERTEX
  5
87
  8
IMPORT_-_POUR_GUYS_INC_FIN
 10
0.4120852244001361
 20
1.171926860652577
 30
0.0
  0
VERTEX
  5
88
  8
IMPORT_-_POUR_GUYS_INC_FIN
 10
0.4170808709397226
 20
1.184140666879318
 30
0.0
  0
VERTEX
  5
89
  8
IMPORT_-_POUR_GUYS_INC_FIN
 10
0.423004588071576
 20
1.195926817227857
 30
0.0
  0
VERTEX
  5
8A
  8
IMPORT_-_POUR_GUYS_INC_FIN
 10
0.4362707685914187
 20
1.218784731149681
 30
0.0
  0
VERTEX
  5
8B
  8
IMPORT_-_POUR_GUYS_INC_FIN
 10
0.4429304992190749
 20
1.230140785152637
 30
0.0
  0
VERTEX
  5
8C
  8
IMPORT_-_POUR_GUYS_INC_FIN
 10
0.4491528349183325
 20
1.24163776413674
 30
0.0
  0
VERTEX
  5
8D
  8
IMPORT_-_POUR_GUYS_INC_FIN
 10
0.4545964093090249
 20
1.253417813316824
 30
0.0
  0
VERTEX
  5
8E
  8
IMPORT_-_POUR_GUYS_INC_FIN
 10
0.4569194840198573
 20
1.259458409609996
 30
0.0
  0
VERTEX
  5
8F
  8
IMPORT_-_POUR_GUYS_INC_FIN
 10
0.4589198560109859
 20
1.265623077907727
 30
0.0
  0
VERTEX
  5
90
  8
IMPORT_-_POUR_GUYS_INC_FIN
 10
0.461790480990615
 20
1.276687765086416
 30
0.0
  0
VERTEX
  5
91
  8
IMPORT_-_POUR_GUYS_INC_FIN
 10
0.46409626988319
 20
1.288025911919753
 30
0.0
  0
VERTEX
  5
92
  8
IMPORT_-_POUR_GUYS_INC_FIN
 10
0.4675322077537861
 20
1.311258716220777
 30
0.0
  0
VERTEX
  5
93
  8
IMPORT_-_POUR_GUYS_INC_FIN
 10
0.4702654063159922
 20
1.334793754151617
 30
0.0
  0
VERTEX
  5
94
  8
IMPORT_-_POUR_GUYS_INC_FIN
 10
0.4733336022630263
 20
1.358103289053089
 30
0.0
  0
VERTEX
  5
95
  8
IMPORT_-_POUR_GUYS_INC_FIN
 10
0.4766869037302177
 20
1.381279001790394
 30
0.0
  0
VERTEX
  5
96
  8
IMPORT_-_POUR_GUYS_INC_FIN
 10
0.4799948355636353
 20
1.404606350182129
 30
0.0
  0
VERTEX
  5
97
  8
IMPORT_-_POUR_GUYS_INC_FIN
 10
0.4838744901179503
 20
1.427803988693316
 30
0.0
  0
VERTEX
  5
98
  8
IMPORT_-_POUR_GUYS_INC_FIN
 10
0.486221554776279
 20
1.439266246264023
 30
0.0
  0
VERTEX
  5
99
  8
IMPORT_-_POUR_GUYS_INC_FIN
 10
0.4889429597478339
 20
1.450590571788977
 30
0.0
  0
VERTEX
  5
9A
  8
IMPORT_-_POUR_GUYS_INC_FIN
 10
0.4926390672147299
 20
1.462222403410187
 30
0.0
  0
VERTEX
  5
9B
  8
IMPORT_-_POUR_GUYS_INC_FIN
 10
0.4974478188308604
 20
1.473795224241853
 30
0.0
  0
VERTEX
  5
9C
  8
IMPORT_-_POUR_GUYS_INC_FIN
 10
0.5031003428280935
 20
1.485264483744075
 30
0.0
  0
VERTEX
  5
9D
  8
IMPORT_-_POUR_GUYS_INC_FIN
 10
0.5093277674382974
 20
1.496585631376955
 30
0.0
  0
VERTEX
  5
9E
  8
IMPORT_-_POUR_GUYS_INC_FIN
 10
0.5224318314250905
 20
1.518605388875097
 30
0.0
  0
VERTEX
  5
9F
  8
IMPORT_-_POUR_GUYS_INC_FIN
 10
0.5287707272654163
 20
1.529214897660561
 30
0.0
  0
VERTEX
  5
A0
  8
IMPORT_-_POUR_GUYS_INC_FIN
 10
0.5346090366461858
 20
1.539498092417089
 30
0.0
  0
VERTEX
  5
A1
  8
IMPORT_-_POUR_GUYS_INC_FIN
 10
0.5460162295702267
 20
1.560331766753936
 30
0.0
  0
VERTEX
  5
A2
  8
IMPORT_-_POUR_GUYS_INC_FIN
 10
0.5574185031269461
 20
1.581543309993167
 30
0.0
  0
VERTEX
  5
A3
  8
IMPORT_-_POUR_GUYS_INC_FIN
 10
0.5634070225544769
 20
1.592664463806182
 30
0.0
  0
VERTEX
  5
A4
  8
IMPORT_-_POUR_GUYS_INC_FIN
 10
0.5694956780097907
 20
1.604023063565714
 30
0.0
  0
VERTEX
  5
A5
  8
IMPORT_-_POUR_GUYS_INC_FIN
 10
0.5749458533923519
 20
1.615254432344638
 30
0.0
  0
VERTEX
  5
A6
  8
IMPORT_-_POUR_GUYS_INC_FIN
 10
0.577200693524933
 20
1.620708443576645
 30
0.0
  0
VERTEX
  5
A7
  8
IMPORT_-_POUR_GUYS_INC_FIN
 10
0.5790189326016248
 20
1.625993893215828
 30
0.0
  0
VERTEX
  5
A8
  8
IMPORT_-_POUR_GUYS_INC_FIN
 10
0.5818355344168535
 20
1.63606900429937
 30
0.0
  0
VERTEX
  5
A9
  8
IMPORT_-_POUR_GUYS_INC_FIN
 10
0.5843136883242284
 20
1.646342409362799
 30
0.0
  0
VERTEX
  5
AA
  8
IMPORT_-_POUR_GUYS_INC_FIN
 10
0.5886941623354774
 20
1.667249513904245
 30
0.0
  0
VERTEX
  5
AB
  8
IMPORT_-_POUR_GUYS_INC_FIN
 10
0.593039374475496
 20
1.688246031790016
 30
0.0
  0
VERTEX
  5
AC
  8
IMPORT_-_POUR_GUYS_INC_FIN
 10
0.5954734510438328
 20
1.69863120353385
 30
0.0
  0
VERTEX
  5
AD
  8
IMPORT_-_POUR_GUYS_INC_FIN
 10
0.5982283445844083
 20
1.70886278796996
 30
0.0
  0
VERTEX
  5
AE
  8
IMPORT_-_POUR_GUYS_INC_FIN
 10
0.603775451680296
 20
1.728077474821219
 30
0.0
  0
VERTEX
  5
AF
  8
IMPORT_-_POUR_GUYS_INC_FIN
 10
0.606820692781695
 20
1.738170566136274
 30
0.0
  0
VERTEX
  5
B0
  8
IMPORT_-_POUR_GUYS_INC_FIN
 10
0.6101234644437998
 20
1.748208835810519
 30
0.0
  0
VERTEX
  5
B1
  8
IMPORT_-_POUR_GUYS_INC_FIN
 10
0.6137410708104121
 20
1.757908293668633
 30
0.0
  0
VERTEX
  5
B2
  8
IMPORT_-_POUR_GUYS_INC_FIN
 10
0.6177308160253331
 20
1.766984949535298
 30
0.0
  0
VERTEX
  5
B3
  8
IMPORT_-_POUR_GUYS_INC_FIN
 10
0.6221500042323647
 20
1.775154813235192
 30
0.0
  0
VERTEX
  5
B4
  8
IMPORT_-_POUR_GUYS_INC_FIN
 10
0.6245385470028599
 20
1.778810951092813
 30
0.0
  0
VERTEX
  5
B5
  8
IMPORT_-_POUR_GUYS_INC_FIN
 10
0.6270559395753086
 20
1.782133894592997
 30
0.0
  0
VERTEX
  5
B6
  8
IMPORT_-_POUR_GUYS_INC_FIN
 10
0.6313683667423406
 20
1.786656626714719
 30
0.0
  0
VERTEX
  5
B7
  8
IMPORT_-_POUR_GUYS_INC_FIN
 10
0.6365015764151656
 20
1.790899867672349
 30
0.0
  0
VERTEX
  5
B8
  8
IMPORT_-_POUR_GUYS_INC_FIN
 10
0.6422877600388769
 20
1.794893383481436
 30
0.0
  0
VERTEX
  5
B9
  8
IMPORT_-_POUR_GUYS_INC_FIN
 10
0.6485591090585683
 20
1.798666940157533
 30
0.0
  0
VERTEX
  5
BA
  8
IMPORT_-_POUR_GUYS_INC_FIN
 10
0.6618860690662651
 20
1.805673240172956
 30
0.0
  0
VERTEX
  5
BB
  8
IMPORT_-_POUR_GUYS_INC_FIN
 10
0.6751399879990045
 20
1.812156895843025
 30
0.0
  0
VERTEX
  5
BC
  8
IMPORT_-_POUR_GUYS_INC_FIN
 10
0.7157920141671108
 20
1.831693119075953
 30
0.0
  0
VERTEX
  5
BD
  8
IMPORT_-_POUR_GUYS_INC_FIN
 10
0.7560863965660591
 20
1.850644898411551
 30
0.0
  0
VERTEX
  5
BE
  8
IMPORT_-_POUR_GUYS_INC_FIN
 10
0.7759507163379331
 20
1.860170036999366
 30
0.0
  0
VERTEX
  5
BF
  8
IMPORT_-_POUR_GUYS_INC_FIN
 10
0.7955471191505181
 20
1.869871163070667
 30
0.0
  0
VERTEX
  5
C0
  8
IMPORT_-_POUR_GUYS_INC_FIN
 10
0.814816102998148
 20
1.879855642778059
 30
0.0
  0
VERTEX
  5
C1
  8
IMPORT_-_POUR_GUYS_INC_FIN
 10
0.8336981658751559
 20
1.890230842274149
 30
0.0
  0
VERTEX
  5
C2
  8
IMPORT_-_POUR_GUYS_INC_FIN
 10
0.8374198207839417
 20
1.90287494081248
 30
0.0
  0
VERTEX
  5
C3
  8
IMPORT_-_POUR_GUYS_INC_FIN
 10
0.8408761553330844
 20
1.915783120260484
 30
0.0
  0
VERTEX
  5
C4
  8
IMPORT_-_POUR_GUYS_INC_FIN
 10
0.844525966581273
 20
1.928497208088528
 30
0.0
  0
VERTEX
  5
C5
  8
IMPORT_-_POUR_GUYS_INC_FIN
 10
0.8465668000483499
 20
1.934638288729554
 30
0.0
  0
VERTEX
  5
C6
  8
IMPORT_-_POUR_GUYS_INC_FIN
 10
0.8488280515871967
 20
1.940559031766976
 30
0.0
  0
VERTEX
  5
C7
  8
IMPORT_-_POUR_GUYS_INC_FIN
 10
0.8513670708301494
 20
1.946202165634591
 30
0.0
  0
VERTEX
  5
C8
  8
IMPORT_-_POUR_GUYS_INC_FIN
 10
0.8542412074095442
 20
1.951510418766194
 30
0.0
  0
VERTEX
  5
C9
  8
IMPORT_-_POUR_GUYS_INC_FIN
 10
0.8575078109577172
 20
1.956426519595581
 30
0.0
  0
VERTEX
  5
CA
  8
IMPORT_-_POUR_GUYS_INC_FIN
 10
0.8612242311070046
 20
1.960893196556547
 30
0.0
  0
VERTEX
  5
CB
  8
IMPORT_-_POUR_GUYS_INC_FIN
 10
0.8654478174897426
 20
1.964853178082888
 30
0.0
  0
VERTEX
  5
CC
  8
IMPORT_-_POUR_GUYS_INC_FIN
 10
0.8702359197382672
 20
1.968249192608401
 30
0.0
  0
VERTEX
  5
CD
  8
IMPORT_-_POUR_GUYS_INC_FIN
 10
0.8756458874849145
 20
1.97102396856688
 30
0.0
  0
VERTEX
  5
CE
  8
IMPORT_-_POUR_GUYS_INC_FIN
 10
0.8817350703620206
 20
1.973120234392121
 30
0.0
  0
VERTEX
  5
CF
  8
IMPORT_-_POUR_GUYS_INC_FIN
 10
0.8779606472613288
 20
1.970236243070773
 30
0.0
  0
VERTEX
  5
D0
  8
IMPORT_-_POUR_GUYS_INC_FIN
 10
0.8746744546093512
 20
1.967289165795204
 30
0.0
  0
VERTEX
  5
D1
  8
IMPORT_-_POUR_GUYS_INC_FIN
 10
0.8718592881882063
 20
1.964284546349195
 30
0.0
  0
VERTEX
  5
D2
  8
IMPORT_-_POUR_GUYS_INC_FIN
 10
0.8694979437800123
 20
1.961227928516527
 30
0.0
  0
VERTEX
  5
D3
  8
IMPORT_-_POUR_GUYS_INC_FIN
 10
0.8675732171668875
 20
1.95812485608098
 30
0.0
  0
VERTEX
  5
D4
  8
IMPORT_-_POUR_GUYS_INC_FIN
 10
0.8660679041309503
 20
1.954980872826334
 30
0.0
  0
VERTEX
  5
D5
  8
IMPORT_-_POUR_GUYS_INC_FIN
 10
0.8649648004543187
 20
1.951801522536372
 30
0.0
  0
VERTEX
  5
D6
  8
IMPORT_-_POUR_GUYS_INC_FIN
 10
0.8642467019191109
 20
1.948592348994872
 30
0.0
  0
VERTEX
  5
D7
  8
IMPORT_-_POUR_GUYS_INC_FIN
 10
0.8638964043074455
 20
1.945358895985616
 30
0.0
  0
VERTEX
  5
D8
  8
IMPORT_-_POUR_GUYS_INC_FIN
 10
0.8638967034014406
 20
1.942106707292384
 30
0.0
  0
VERTEX
  5
D9
  8
IMPORT_-_POUR_GUYS_INC_FIN
 10
0.8642303949832146
 20
1.938841326698957
 30
0.0
  0
VERTEX
  5
DA
  8
IMPORT_-_POUR_GUYS_INC_FIN
 10
0.8648802748348857
 20
1.935568297989115
 30
0.0
  0
VERTEX
  5
DB
  8
IMPORT_-_POUR_GUYS_INC_FIN
 10
0.8670597824763923
 20
1.929021471355311
 30
0.0
  0
VERTEX
  5
DC
  8
IMPORT_-_POUR_GUYS_INC_FIN
 10
0.8702975925829066
 20
1.922510577661217
 30
0.0
  0
VERTEX
  5
DD
  8
IMPORT_-_POUR_GUYS_INC_FIN
 10
0.8744560714113749
 20
1.916079967177078
 30
0.0
  0
VERTEX
  5
DE
  8
IMPORT_-_POUR_GUYS_INC_FIN
 10
0.8793975852187434
 20
1.909773990173138
 30
0.0
  0
VERTEX
  5
DF
  8
IMPORT_-_POUR_GUYS_INC_FIN
 10
0.8849845002619584
 20
1.903636996919643
 30
0.0
  0
VERTEX
  5
E0
  8
IMPORT_-_POUR_GUYS_INC_FIN
 10
0.8910791827979658
 20
1.897713337686837
 30
0.0
  0
VERTEX
  5
E1
  8
IMPORT_-_POUR_GUYS_INC_FIN
 10
0.8975439990837122
 20
1.892047362744965
 30
0.0
  0
VERTEX
  5
E2
  8
IMPORT_-_POUR_GUYS_INC_FIN
 10
0.9042413153761437
 20
1.886683422364274
 30
0.0
  0
VERTEX
  5
E3
  8
IMPORT_-_POUR_GUYS_INC_FIN
 10
0.9177829130088466
 20
1.877039046367408
 30
0.0
  0
VERTEX
  5
E4
  8
IMPORT_-_POUR_GUYS_INC_FIN
 10
0.926514680311613
 20
1.871442037798711
 30
0.0
  0
VERTEX
  5
E5
  8
IMPORT_-_POUR_GUYS_INC_FIN
 10
0.9354794209720522
 20
1.866139124765842
 30
0.0
  0
VERTEX
  5
E6
  8
IMPORT_-_POUR_GUYS_INC_FIN
 10
0.9452022918639448
 20
1.860877814976141
 30
0.0
  0
VERTEX
  5
E7
  8
IMPORT_-_POUR_GUYS_INC_FIN
 10
0.9562084498610717
 20
1.855405616136948
 30
0.0
  0
VERTEX
  5
E8
  8
IMPORT_-_POUR_GUYS_INC_FIN
 10
0.9672520796014678
 20
1.849670455335971
 30
0.0
  0
VERTEX
  5
E9
  8
IMPORT_-_POUR_GUYS_INC_FIN
 10
0.9784411525505152
 20
1.843790643997835
 30
0.0
  0
VERTEX
  5
EA
  8
IMPORT_-_POUR_GUYS_INC_FIN
 10
0.9839491452115675
 20
1.841250217737962
 30
0.0
  0
VERTEX
  5
EB
  8
IMPORT_-_POUR_GUYS_INC_FIN
 10
0.9893241966547237
 20
1.839218096876556
 30
0.0
  0
VERTEX
  5
EC
  8
IMPORT_-_POUR_GUYS_INC_FIN
 10
0.9945098728732976
 20
1.837875770757868
 30
0.0
  0
VERTEX
  5
ED
  8
IMPORT_-_POUR_GUYS_INC_FIN
 10
0.9994497398606028
 20
1.83740472872615
 30
0.0
  0
VERTEX
  5
EE
  8
IMPORT_-_POUR_GUYS_INC_FIN
 10
1.005854136650954
 20
1.837859720236061
 30
0.0
  0
VERTEX
  5
EF
  8
IMPORT_-_POUR_GUYS_INC_FIN
 10
1.011608931121613
 20
1.839101054326827
 30
0.0
  0
VERTEX
  5
F0
  8
IMPORT_-_POUR_GUYS_INC_FIN
 10
1.01678833691585
 20
1.841041561605031
 30
0.0
  0
VERTEX
  5
F1
  8
IMPORT_-_POUR_GUYS_INC_FIN
 10
1.021466567676936
 20
1.843594072677256
 30
0.0
  0
VERTEX
  5
F2
  8
IMPORT_-_POUR_GUYS_INC_FIN
 10
1.025717837048139
 20
1.846671418150087
 30
0.0
  0
VERTEX
  5
F3
  8
IMPORT_-_POUR_GUYS_INC_FIN
 10
1.029616358672731
 20
1.850186428630107
 30
0.0
  0
VERTEX
  5
F4
  8
IMPORT_-_POUR_GUYS_INC_FIN
 10
1.036652013255156
 20
1.85818076703805
 30
0.0
  0
VERTEX
  5
F5
  8
IMPORT_-_POUR_GUYS_INC_FIN
 10
1.043167240570371
 20
1.866879732753756
 30
0.0
  0
VERTEX
  5
F6
  8
IMPORT_-_POUR_GUYS_INC_FIN
 10
1.049755749764535
 20
1.875585970629894
 30
0.0
  0
VERTEX
  5
F7
  8
IMPORT_-_POUR_GUYS_INC_FIN
 10
1.053263019174397
 20
1.879723893144584
 30
0.0
  0
VERTEX
  5
F8
  8
IMPORT_-_POUR_GUYS_INC_FIN
 10
1.057011249983806
 20
1.883602125519135
 30
0.0
  0
VERTEX
  5
F9
  8
IMPORT_-_POUR_GUYS_INC_FIN
 10
1.061074655836031
 20
1.887133498360128
 30
0.0
  0
VERTEX
  5
FA
  8
IMPORT_-_POUR_GUYS_INC_FIN
 10
1.065527450374343
 20
1.890230842274149
 30
0.0
  0
VERTEX
  5
FB
  8
IMPORT_-_POUR_GUYS_INC_FIN
 10
1.075126963366613
 20
1.886683274038623
 30
0.0
  0
VERTEX
  5
FC
  8
IMPORT_-_POUR_GUYS_INC_FIN
 10
1.084352759373694
 20
1.882505355417211
 30
0.0
  0
VERTEX
  5
FD
  8
IMPORT_-_POUR_GUYS_INC_FIN
 10
1.102092492754253
 20
1.873144688157252
 30
0.0
  0
VERTEX
  5
FE
  8
IMPORT_-_POUR_GUYS_INC_FIN
 10
1.110811076288713
 20
1.868405050088971
 30
0.0
  0
VERTEX
  5
FF
  8
IMPORT_-_POUR_GUYS_INC_FIN
 10
1.119565235159948
 20
1.863921282775331
 30
0.0
  0
VERTEX
  5
100
  8
IMPORT_-_POUR_GUYS_INC_FIN
 10
1.12845729244845
 20
1.859914941501465
 30
0.0
  0
VERTEX
  5
101
  8
IMPORT_-_POUR_GUYS_INC_FIN
 10
1.137589571234707
 20
1.856607581552505
 30
0.0
  0
VERTEX
  5
102
  8
IMPORT_-_POUR_GUYS_INC_FIN
 10
1.145010447248031
 20
1.855023220199597
 30
0.0
  0
VERTEX
  5
103
  8
IMPORT_-_POUR_GUYS_INC_FIN
 10
1.152702719568088
 20
1.854233384709811
 30
0.0
  0
VERTEX
  5
104
  8
IMPORT_-_POUR_GUYS_INC_FIN
 10
1.160648118317999
 20
1.853428349143652
 30
0.0
  0
VERTEX
  5
105
  8
IMPORT_-_POUR_GUYS_INC_FIN
 10
1.164710030767625
 20
1.852767091975842
 30
0.0
  0
VERTEX
  5
106
  8
IMPORT_-_POUR_GUYS_INC_FIN
 10
1.168828373620885
 20
1.851798387561628
 30
0.0
  0
VERTEX
  5
107
  8
IMPORT_-_POUR_GUYS_INC_FIN
 10
1.172556838260868
 20
1.850563908653062
 30
0.0
  0
VERTEX
  5
108
  8
IMPORT_-_POUR_GUYS_INC_FIN
 10
1.176336190984444
 20
1.848945275017229
 30
0.0
  0
VERTEX
  5
109
  8
IMPORT_-_POUR_GUYS_INC_FIN
 10
1.183980970572196
 20
1.844717134451527
 30
0.0
  0
VERTEX
  5
10A
  8
IMPORT_-_POUR_GUYS_INC_FIN
 10
1.191629532163779
 20
1.839437147640044
 30
0.0
  0
VERTEX
  5
10B
  8
IMPORT_-_POUR_GUYS_INC_FIN
 10
1.199148695538834
 20
1.833428496358306
 30
0.0
  0
VERTEX
  5
10C
  8
IMPORT_-_POUR_GUYS_INC_FIN
 10
1.21326610675791
 20
1.820517927486159
 30
0.0
  0
VERTEX
  5
10D
  8
IMPORT_-_POUR_GUYS_INC_FIN
 10
1.225267762466537
 20
1.808570882039279
 30
0.0
  0
VERTEX
  5
10E
  8
IMPORT_-_POUR_GUYS_INC_FIN
 10
1.237738762168429
 20
1.796782053822248
 30
0.0
  0
VERTEX
  5
10F
  8
IMPORT_-_POUR_GUYS_INC_FIN
 10
1.250501964602708
 20
1.785734051577792
 30
0.0
  0
VERTEX
  5
110
  8
IMPORT_-_POUR_GUYS_INC_FIN
 10
1.25737562745781
 20
1.780434102655897
 30
0.0
  0
VERTEX
  5
111
  8
IMPORT_-_POUR_GUYS_INC_FIN
 10
1.264894726678518
 20
1.774851924250209
 30
0.0
  0
VERTEX
  5
112
  8
IMPORT_-_POUR_GUYS_INC_FIN
 10
1.271828229025179
 20
1.769005137688203
 30
0.0
  0
VERTEX
  5
113
  8
IMPORT_-_POUR_GUYS_INC_FIN
 10
1.274690683483351
 20
1.765988023013417
 30
0.0
  0
VERTEX
  5
114
  8
IMPORT_-_POUR_GUYS_INC_FIN
 10
1.276945101258142
 20
1.762911364297356
 30
0.0
  0
VERTEX
  5
115
  8
IMPORT_-_POUR_GUYS_INC_FIN
 10
1.28046688885423
 20
1.756227355102706
 30
0.0
  0
VERTEX
  5
116
  8
IMPORT_-_POUR_GUYS_INC_FIN
 10
1.283370336238555
 20
1.748958663008261
 30
0.0
  0
VERTEX
  5
117
  8
IMPORT_-_POUR_GUYS_INC_FIN
 10
1.285761227823791
 20
1.741215705951872
 30
0.0
  0
VERTEX
  5
118
  8
IMPORT_-_POUR_GUYS_INC_FIN
 10
1.287745348022612
 20
1.733108901871389
 30
0.0
  0
VERTEX
  5
119
  8
IMPORT_-_POUR_GUYS_INC_FIN
 10
1.290916411911704
 20
1.716245424389549
 30
0.0
  0
VERTEX
  5
11A
  8
IMPORT_-_POUR_GUYS_INC_FIN
 10
1.293729803207219
 20
1.699251574065549
 30
0.0
  0
VERTEX
  5
11B
  8
IMPORT_-_POUR_GUYS_INC_FIN
 10
1.29668805246561
 20
1.68128944408716
 30
0.0
  0
VERTEX
  5
11C
  8
IMPORT_-_POUR_GUYS_INC_FIN
 10
1.299235827901156
 20
1.663476460054106
 30
0.0
  0
VERTEX
  5
11D
  8
IMPORT_-_POUR_GUYS_INC_FIN
 10
1.303432746017526
 20
1.627967674055914
 30
0.0
  0
VERTEX
  5
11E
  8
IMPORT_-_POUR_GUYS_INC_FIN
 10
1.306986134983941
 20
1.592064704534808
 30
0.0
  0
VERTEX
  5
11F
  8
IMPORT_-_POUR_GUYS_INC_FIN
 10
1.310561572228014
 20
1.555107039954619
 30
0.0
  0
VERTEX
  5
120
  8
IMPORT_-_POUR_GUYS_INC_FIN
 10
1.312172921242858
 20
1.536850428713643
 30
0.0
  0
VERTEX
  5
121
  8
IMPORT_-_POUR_GUYS_INC_FIN
 10
1.313845973728286
 20
1.518430594402241
 30
0.0
  0
VERTEX
  5
122
  8
IMPORT_-_POUR_GUYS_INC_FIN
 10
1.314924058801646
 20
1.509405280828942
 30
0.0
  0
VERTEX
  5
123
  8
IMPORT_-_POUR_GUYS_INC_FIN
 10
1.316279673777664
 20
1.500634136168612
 30
0.0
  0
VERTEX
  5
124
  8
IMPORT_-_POUR_GUYS_INC_FIN
 10
1.318000186668011
 20
1.492215485314775
 30
0.0
  0
VERTEX
  5
125
  8
IMPORT_-_POUR_GUYS_INC_FIN
 10
1.320172965484358
 20
1.484247653160956
 30
0.0
  0
VERTEX
  5
126
  8
IMPORT_-_POUR_GUYS_INC_FIN
 10
1.322700357302423
 20
1.47737237693913
 30
0.0
  0
VERTEX
  5
127
  8
IMPORT_-_POUR_GUYS_INC_FIN
 10
1.325831373265895
 20
1.4705928025888
 30
0.0
  0
VERTEX
  5
128
  8
IMPORT_-_POUR_GUYS_INC_FIN
 10
1.333311436217984
 20
1.457368281359605
 30
0.0
  0
VERTEX
  5
129
  8
IMPORT_-_POUR_GUYS_INC_FIN
 10
1.341427471518468
 20
1.444669133187324
 30
0.0
  0
VERTEX
  5
12A
  8
IMPORT_-_POUR_GUYS_INC_FIN
 10
1.348993796345191
 20
1.432590401785913
 30
0.0
  0
VERTEX
  5
12B
  8
IMPORT_-_POUR_GUYS_INC_FIN
 10
1.355885529708281
 20
1.419945917520823
 30
0.0
  0
VERTEX
  5
12C
  8
IMPORT_-_POUR_GUYS_INC_FIN
 10
1.362266595271655
 20
1.406996778374813
 30
0.0
  0
VERTEX
  5
12D
  8
IMPORT_-_POUR_GUYS_INC_FIN
 10
1.368623736568172
 20
1.393936799733841
 30
0.0
  0
VERTEX
  5
12E
  8
IMPORT_-_POUR_GUYS_INC_FIN
 10
1.375443697130692
 20
1.380959796983862
 30
0.0
  0
VERTEX
  5
12F
  8
IMPORT_-_POUR_GUYS_INC_FIN
 10
1.380779161038238
 20
1.372137261188791
 30
0.0
  0
VERTEX
  5
130
  8
IMPORT_-_POUR_GUYS_INC_FIN
 10
1.386693852223982
 20
1.363580315982281
 30
0.0
  0
VERTEX
  5
131
  8
IMPORT_-_POUR_GUYS_INC_FIN
 10
1.393079386673063
 20
1.355300858642819
 30
0.0
  0
VERTEX
  5
132
  8
IMPORT_-_POUR_GUYS_INC_FIN
 10
1.399827380370616
 20
1.347310786448895
 30
0.0
  0
VERTEX
  5
133
  8
IMPORT_-_POUR_GUYS_INC_FIN
 10
1.413977209451691
 20
1.332246386611609
 30
0.0
  0
VERTEX
  5
134
  8
IMPORT_-_POUR_GUYS_INC_FIN
 10
1.4282762673483
 20
1.318482294698327
 30
0.0
  0
VERTEX
  5
135
  8
IMPORT_-_POUR_GUYS_INC_FIN
 10
1.433719002027652
 20
1.314033194552128
 30
0.0
  0
VERTEX
  5
136
  8
IMPORT_-_POUR_GUYS_INC_FIN
 10
1.439613852505827
 20
1.309739784695145
 30
0.0
  0
VERTEX
  5
137
  8
IMPORT_-_POUR_GUYS_INC_FIN
 10
1.445241721617278
 20
1.305309132176402
 30
0.0
  0
VERTEX
  5
138
  8
IMPORT_-_POUR_GUYS_INC_FIN
 10
1.447730820296248
 20
1.302950798371692
 30
0.0
  0
VERTEX
  5
139
  8
IMPORT_-_POUR_GUYS_INC_FIN
 10
1.449883512196456
 20
1.300448304044927
 30
0.0
  0
VERTEX
  5
13A
  8
IMPORT_-_POUR_GUYS_INC_FIN
 10
1.453292343554434
 20
1.295389682757826
 30
0.0
  0
VERTEX
  5
13B
  8
IMPORT_-_POUR_GUYS_INC_FIN
 10
1.456391137371704
 20
1.289744522999027
 30
0.0
  0
VERTEX
  5
13C
  8
IMPORT_-_POUR_GUYS_INC_FIN
 10
1.46196243255794
 20
1.277328071906653
 30
0.0
  0
VERTEX
  5
13D
  8
IMPORT_-_POUR_GUYS_INC_FIN
 10
1.467205038102798
 20
1.264465918448438
 30
0.0
  0
VERTEX
  5
13E
  8
IMPORT_-_POUR_GUYS_INC_FIN
 10
1.469892969868346
 20
1.258263630732339
 30
0.0
  0
VERTEX
  5
13F
  8
IMPORT_-_POUR_GUYS_INC_FIN
 10
1.472726594353913
 20
1.252425030305016
 30
0.0
  0
VERTEX
  5
140
  8
IMPORT_-_POUR_GUYS_INC_FIN
 10
1.478793095441697
 20
1.241243697512853
 30
0.0
  0
VERTEX
  5
141
  8
IMPORT_-_POUR_GUYS_INC_FIN
 10
1.485301659812562
 20
1.2305529467052
 30
0.0
  0
VERTEX
  5
142
  8
IMPORT_-_POUR_GUYS_INC_FIN
 10
1.492427330950307
 20
1.220583863240358
 30
0.0
  0
VERTEX
  5
143
  8
IMPORT_-_POUR_GUYS_INC_FIN
 10
1.496276282645447
 20
1.21594216093596
 30
0.0
  0
VERTEX
  5
144
  8
IMPORT_-_POUR_GUYS_INC_FIN
 10
1.500345152338732
 20
1.211567532476626
 30
0.0
  0
VERTEX
  5
145
  8
IMPORT_-_POUR_GUYS_INC_FIN
 10
1.507066747023008
 20
1.205544784453179
 30
0.0
  0
VERTEX
  5
146
  8
IMPORT_-_POUR_GUYS_INC_FIN
 10
1.514116958386854
 20
1.200201324672125
 30
0.0
  0
VERTEX
  5
147
  8
IMPORT_-_POUR_GUYS_INC_FIN
 10
1.521122307546783
 20
1.195114464663283
 30
0.0
  0
VERTEX
  5
148
  8
IMPORT_-_POUR_GUYS_INC_FIN
 10
1.527709315619309
 20
1.189861515956468
 30
0.0
  0
VERTEX
  5
149
  8
IMPORT_-_POUR_GUYS_INC_FIN
 10
1.530729229596705
 20
1.18704066819439
 30
0.0
  0
VERTEX
  5
14A
  8
IMPORT_-_POUR_GUYS_INC_FIN
 10
1.533504503720943
 20
1.184019790081499
 30
0.0
  0
VERTEX
  5
14B
  8
IMPORT_-_POUR_GUYS_INC_FIN
 10
1.535988453131586
 20
1.180746045559025
 30
0.0
  0
VERTEX
  5
14C
  8
IMPORT_-_POUR_GUYS_INC_FIN
 10
1.538134392968199
 20
1.177166598568193
 30
0.0
  0
VERTEX
  5
14D
  8
IMPORT_-_POUR_GUYS_INC_FIN
 10
1.539895638370346
 20
1.173228613050231
 30
0.0
  0
VERTEX
  5
14E
  8
IMPORT_-_POUR_GUYS_INC_FIN
 10
1.541225504477591
 20
1.168879252946367
 30
0.0
  0
VERTEX
  5
14F
  8
IMPORT_-_POUR_GUYS_INC_FIN
 10
1.542077306429498
 20
1.164065682197826
 30
0.0
  0
VERTEX
  5
150
  8
IMPORT_-_POUR_GUYS_INC_FIN
 10
1.54240435936563
 20
1.158735064745837
 30
0.0
  0
VERTEX
  5
151
  8
IMPORT_-_POUR_GUYS_INC_FIN
 10
1.548680848414572
 20
1.152617323150913
 30
0.0
  0
VERTEX
  5
152
  8
IMPORT_-_POUR_GUYS_INC_FIN
 10
1.554872094502026
 20
1.145629637203942
 30
0.0
  0
VERTEX
  5
153
  8
IMPORT_-_POUR_GUYS_INC_FIN
 10
1.560896003734163
 20
1.137879282380716
 30
0.0
  0
VERTEX
  5
154
  8
IMPORT_-_POUR_GUYS_INC_FIN
 10
1.566670482217151
 20
1.129473534157025
 30
0.0
  0
VERTEX
  5
155
  8
IMPORT_-_POUR_GUYS_INC_FIN
 10
1.57211343605716
 20
1.120519668008663
 30
0.0
  0
VERTEX
  5
156
  8
IMPORT_-_POUR_GUYS_INC_FIN
 10
1.577142771360357
 20
1.111124959411419
 30
0.0
  0
VERTEX
  5
157
  8
IMPORT_-_POUR_GUYS_INC_FIN
 10
1.581676394232912
 20
1.101396683841085
 30
0.0
  0
VERTEX
  5
158
  8
IMPORT_-_POUR_GUYS_INC_FIN
 10
1.585632210780994
 20
1.091442116773453
 30
0.0
  0
VERTEX
  5
159
  8
IMPORT_-_POUR_GUYS_INC_FIN
 10
1.590817390478953
 20
1.078000413163525
 30
0.0
  0
VERTEX
  5
15A
  8
IMPORT_-_POUR_GUYS_INC_FIN
 10
1.593279011781136
 20
1.071336905135937
 30
0.0
  0
VERTEX
  5
15B
  8
IMPORT_-_POUR_GUYS_INC_FIN
 10
1.595236878339829
 20
1.065012098430877
 30
0.0
  0
VERTEX
  5
15C
  8
IMPORT_-_POUR_GUYS_INC_FIN
 10
1.595229335950479
 20
1.060620410119708
 30
0.0
  0
VERTEX
  5
15D
  8
IMPORT_-_POUR_GUYS_INC_FIN
 10
1.59505270472166
 20
1.058025535134932
 30
0.0
  0
VERTEX
  5
15E
  8
IMPORT_-_POUR_GUYS_INC_FIN
 10
1.595236878339829
 20
1.055427633586277
 30
0.0
  0
VERTEX
  5
15F
  8
IMPORT_-_POUR_GUYS_INC_FIN
 10
1.595971326809859
 20
1.050240318179104
 30
0.0
  0
VERTEX
  5
160
  8
IMPORT_-_POUR_GUYS_INC_FIN
 10
1.596310495828584
 20
1.044474461274675
 30
0.0
  0
VERTEX
  5
161
  8
IMPORT_-_POUR_GUYS_INC_FIN
 10
1.596261468396196
 20
1.038323439287082
 30
0.0
  0
VERTEX
  5
162
  8
IMPORT_-_POUR_GUYS_INC_FIN
 10
1.595831327512884
 20
1.031980628630415
 30
0.0
  0
VERTEX
  5
163
  8
IMPORT_-_POUR_GUYS_INC_FIN
 10
1.595027156178838
 20
1.025639405718768
 30
0.0
  0
VERTEX
  5
164
  8
IMPORT_-_POUR_GUYS_INC_FIN
 10
1.593856037394249
 20
1.019493146966232
 30
0.0
  0
VERTEX
  5
165
  8
IMPORT_-_POUR_GUYS_INC_FIN
 10
1.592325054159306
 20
1.0137352287869
 30
0.0
  0
VERTEX
  5
166
  8
IMPORT_-_POUR_GUYS_INC_FIN
 10
1.5904412894742
 20
1.008559027594862
 30
0.0
  0
VERTEX
  5
167
  8
IMPORT_-_POUR_GUYS_INC_FIN
 10
1.588488084839742
 20
1.005295178805316
 30
0.0
  0
VERTEX
  5
168
  8
IMPORT_-_POUR_GUYS_INC_FIN
 10
1.585039159392038
 20
1.000884978712345
 30
0.0
  0
VERTEX
  5
169
  8
IMPORT_-_POUR_GUYS_INC_FIN
 10
1.580499159767574
 20
0.9958746794600712
 30
0.0
  0
VERTEX
  5
16A
  8
IMPORT_-_POUR_GUYS_INC_FIN
 10
1.575272732602834
 20
0.9908105331926185
 30
0.0
  0
VERTEX
  5
16B
  8
IMPORT_-_POUR_GUYS_INC_FIN
 10
1.569764524534305
 20
0.986238792054108
 30
0.0
  0
VERTEX
  5
16C
  8
IMPORT_-_POUR_GUYS_INC_FIN
 10
1.564379182198471
 20
0.9827057081886621
 30
0.0
  0
VERTEX
  5
16D
  8
IMPORT_-_POUR_GUYS_INC_FIN
 10
1.561859037754217
 20
0.9814993665283767
 30
0.0
  0
VERTEX
  5
16E
  8
IMPORT_-_POUR_GUYS_INC_FIN
 10
1.559521352231818
 20
0.9807575337404031
 30
0.0
  0
VERTEX
  5
16F
  8
IMPORT_-_POUR_GUYS_INC_FIN
 10
1.557416706460836
 20
0.9805484913427569
 30
0.0
  0
VERTEX
  5
170
  8
IMPORT_-_POUR_GUYS_INC_FIN
 10
1.555595681270832
 20
0.9809405208534533
 30
0.0
  0
VERTEX
  5
171
  8
IMPORT_-_POUR_GUYS_INC_FIN
 10
1.553864793566715
 20
0.981826294314742
 30
0.0
  0
VERTEX
  5
172
  8
IMPORT_-_POUR_GUYS_INC_FIN
 10
1.552775548064071
 20
0.9827322202477036
 30
0.0
  0
VERTEX
  5
173
  8
IMPORT_-_POUR_GUYS_INC_FIN
 10
1.552211454330884
 20
0.9837363785958491
 30
0.0
  0
VERTEX
  5
174
  8
IMPORT_-_POUR_GUYS_INC_FIN
 10
1.552056021935137
 20
0.9849168493026901
 30
0.0
  0
VERTEX
  5
175
  8
IMPORT_-_POUR_GUYS_INC_FIN
 10
1.552505179427904
 20
0.9881190475665043
 30
0.0
  0
VERTEX
  5
176
  8
IMPORT_-_POUR_GUYS_INC_FIN
 10
1.553191097086245
 20
0.9929634545872373
 30
0.0
  0
VERTEX
  5
177
  8
IMPORT_-_POUR_GUYS_INC_FIN
 10
1.549557268252167
 20
0.9916467490724161
 30
0.0
  0
VERTEX
  5
178
  8
IMPORT_-_POUR_GUYS_INC_FIN
 10
1.546290147716041
 20
0.9899613522297683
 30
0.0
  0
VERTEX
  5
179
  8
IMPORT_-_POUR_GUYS_INC_FIN
 10
1.540056026032575
 20
0.9862862909916693
 30
0.0
  0
VERTEX
  5
17A
  8
IMPORT_-_POUR_GUYS_INC_FIN
 10
1.536689022132704
 20
0.9846975298115559
 30
0.0
  0
VERTEX
  5
17B
  8
IMPORT_-_POUR_GUYS_INC_FIN
 10
1.532888721025718
 20
0.9835418837342916
 30
0.0
  0
VERTEX
  5
17C
  8
IMPORT_-_POUR_GUYS_INC_FIN
 10
1.528455121335351
 20
0.9830198043675455
 30
0.0
  0
VERTEX
  5
17D
  8
IMPORT_-_POUR_GUYS_INC_FIN
 10
1.523188221685337
 20
0.9833317433189867
 30
0.0
  0
VERTEX
  5
17E
  8
IMPORT_-_POUR_GUYS_INC_FIN
 10
1.521862489617642
 20
0.9839746934534426
 30
0.0
  0
VERTEX
  5
17F
  8
IMPORT_-_POUR_GUYS_INC_FIN
 10
1.520957422868768
 20
0.9848133390164868
 30
0.0
  0
VERTEX
  5
180
  8
IMPORT_-_POUR_GUYS_INC_FIN
 10
1.520422843794451
 20
0.9858217264722172
 30
0.0
  0
VERTEX
  5
181
  8
IMPORT_-_POUR_GUYS_INC_FIN
 10
1.520208574750429
 20
0.9869739022847317
 30
0.0
  0
VERTEX
  5
182
  8
IMPORT_-_POUR_GUYS_INC_FIN
 10
1.520540256176224
 20
0.9896058048365042
 30
0.0
  0
VERTEX
  5
183
  8
IMPORT_-_POUR_GUYS_INC_FIN
 10
1.521551045992055
 20
0.9925014183845868
 30
0.0
  0
VERTEX
  5
184
  8
IMPORT_-_POUR_GUYS_INC_FIN
 10
1.524004266177438
 20
0.9982532653208146
 30
0.0
  0
VERTEX
  5
185
  8
IMPORT_-_POUR_GUYS_INC_FIN
 10
1.524643854238795
 20
1.000694242134525
 30
0.0
  0
VERTEX
  5
186
  8
IMPORT_-_POUR_GUYS_INC_FIN
 10
1.524641271006724
 20
1.001715156502122
 30
0.0
  0
VERTEX
  5
187
  8
IMPORT_-_POUR_GUYS_INC_FIN
 10
1.524356866073802
 20
1.002568416795677
 30
0.0
  0
VERTEX
  5
188
  8
IMPORT_-_POUR_GUYS_INC_FIN
 10
1.516415904082383
 20
1.001575181800983
 30
0.0
  0
VERTEX
  5
189
  8
IMPORT_-_POUR_GUYS_INC_FIN
 10
1.508347106998596
 20
1.00153044310169
 30
0.0
  0
VERTEX
  5
18A
  8
IMPORT_-_POUR_GUYS_INC_FIN
 10
1.504461743533117
 20
1.00191684483245
 30
0.0
  0
VERTEX
  5
18B
  8
IMPORT_-_POUR_GUYS_INC_FIN
 10
1.500780789177808
 20
1.002604072600619
 30
0.0
  0
VERTEX
  5
18C
  8
IMPORT_-_POUR_GUYS_INC_FIN
 10
1.49738303322709
 20
1.003613360394048
 30
0.0
  0
VERTEX
  5
18D
  8
IMPORT_-_POUR_GUYS_INC_FIN
 10
1.494347264975384
 20
1.004965942200591
 30
0.0
  0
VERTEX
  5
18E
  8
IMPORT_-_POUR_GUYS_INC_FIN
 10
1.486700506999189
 20
1.001122700617633
 30
0.0
  0
VERTEX
  5
18F
  8
IMPORT_-_POUR_GUYS_INC_FIN
 10
1.478691457241386
 20
0.9975905473154911
 30
0.0
  0
VERTEX
  5
190
  8
IMPORT_-_POUR_GUYS_INC_FIN
 10
1.470354521773236
 20
0.9943440106665
 30
0.0
  0
VERTEX
  5
191
  8
IMPORT_-_POUR_GUYS_INC_FIN
 10
1.461724106665999
 20
0.9913576190429945
 30
0.0
  0
VERTEX
  5
192
  8
IMPORT_-_POUR_GUYS_INC_FIN
 10
1.443720461819307
 20
0.9860633843617783
 30
0.0
  0
VERTEX
  5
193
  8
IMPORT_-_POUR_GUYS_INC_FIN
 10
1.424955771271392
 20
0.9815040702505197
 30
0.0
  0
VERTEX
  5
194
  8
IMPORT_-_POUR_GUYS_INC_FIN
 10
1.386244247352229
 20
0.9737751116525817
 30
0.0
  0
VERTEX
  5
195
  8
IMPORT_-_POUR_GUYS_INC_FIN
 10
1.347791523469177
 20
0.9665405590785953
 30
0.0
  0
VERTEX
  5
196
  8
IMPORT_-_POUR_GUYS_INC_FIN
 10
1.335100351253533
 20
0.96407738365988
 30
0.0
  0
VERTEX
  5
197
  8
IMPORT_-_POUR_GUYS_INC_FIN
 10
1.32251873824829
 20
0.961314698518841
 30
0.0
  0
VERTEX
  5
198
  8
IMPORT_-_POUR_GUYS_INC_FIN
 10
1.316430762718959
 20
0.959604578932927
 30
0.0
  0
VERTEX
  5
199
  8
IMPORT_-_POUR_GUYS_INC_FIN
 10
1.310564272515496
 20
0.9575598288730045
 30
0.0
  0
VERTEX
  5
19A
  8
IMPORT_-_POUR_GUYS_INC_FIN
 10
1.304983966145657
 20
0.9550938639912643
 30
0.0
  0
VERTEX
  5
19B
  8
IMPORT_-_POUR_GUYS_INC_FIN
 10
1.299754542117197
 20
0.9521200999398972
 30
0.0
  0
VERTEX
  5
19C
  8
IMPORT_-_POUR_GUYS_INC_FIN
 10
1.299452026986415
 20
0.9381225134899381
 30
0.0
  0
VERTEX
  5
19D
  8
IMPORT_-_POUR_GUYS_INC_FIN
 10
1.299823178961219
 20
0.9244425124496791
 30
0.0
  0
VERTEX
  5
19E
  8
IMPORT_-_POUR_GUYS_INC_FIN
 10
1.300798802249087
 20
0.9110494460290539
 30
0.0
  0
VERTEX
  5
19F
  8
IMPORT_-_POUR_GUYS_INC_FIN
 10
1.3023097010575
 20
0.8979126634379967
 30
0.0
  0
VERTEX
  5
1A0
  8
IMPORT_-_POUR_GUYS_INC_FIN
 10
1.304286679593936
 20
0.8850015138864414
 30
0.0
  0
VERTEX
  5
1A1
  8
IMPORT_-_POUR_GUYS_INC_FIN
 10
1.306660542065876
 20
0.8722853465843224
 30
0.0
  0
VERTEX
  5
1A2
  8
IMPORT_-_POUR_GUYS_INC_FIN
 10
1.312322135646184
 20
0.8473153555681288
 30
0.0
  0
VERTEX
  5
1A3
  8
IMPORT_-_POUR_GUYS_INC_FIN
 10
1.31874091545826
 20
0.822757484068888
 30
0.0
  0
VERTEX
  5
1A4
  8
IMPORT_-_POUR_GUYS_INC_FIN
 10
1.325363315161939
 20
0.7983665257660728
 30
0.0
  0
VERTEX
  5
1A5
  8
IMPORT_-_POUR_GUYS_INC_FIN
 10
1.331635768417056
 20
0.7738972743391554
 30
0.0
  0
VERTEX
  5
1A6
  8
IMPORT_-_POUR_GUYS_INC_FIN
 10
1.334467775645103
 20
0.7615566617289936
 30
0.0
  0
VERTEX
  5
1A7
  8
IMPORT_-_POUR_GUYS_INC_FIN
 10
1.337004708883448
 20
0.7491045234676084
 30
0.0
  0
VERTEX
  5
1A8
  8
IMPORT_-_POUR_GUYS_INC_FIN
 10
1.341601589868564
 20
0.7236146697124305
 30
0.0
  0
VERTEX
  5
1A9
  8
IMPORT_-_POUR_GUYS_INC_FIN
 10
1.345718734356658
 20
0.6978396905202235
 30
0.0
  0
VERTEX
  5
1AA
  8
IMPORT_-_POUR_GUYS_INC_FIN
 10
1.34921769176271
 20
0.671595257041318
 30
0.0
  0
VERTEX
  5
1AB
  8
IMPORT_-_POUR_GUYS_INC_FIN
 10
1.351960011501697
 20
0.6446970404260443
 30
0.0
  0
VERTEX
  5
1AC
  8
IMPORT_-_POUR_GUYS_INC_FIN
 10
1.353807242988599
 20
0.6169607118247331
 30
0.0
  0
VERTEX
  5
1AD
  8
IMPORT_-_POUR_GUYS_INC_FIN
 10
1.354620935638394
 20
0.5882019423877147
 30
0.0
  0
VERTEX
  5
1AE
  8
IMPORT_-_POUR_GUYS_INC_FIN
 10
1.354596939091558
 20
0.5733815395902937
 30
0.0
  0
VERTEX
  5
1AF
  8
IMPORT_-_POUR_GUYS_INC_FIN
 10
1.354262638866061
 20
0.55823640326532
 30
0.0
  0
VERTEX
  5
1B0
  8
IMPORT_-_POUR_GUYS_INC_FIN
 10
1.353600728638777
 20
0.5427434923065848
 30
0.0
  0
VERTEX
  5
1B1
  8
IMPORT_-_POUR_GUYS_INC_FIN
 10
1.352593902086578
 20
0.5268797656078793
 30
0.0
  0
VERTEX
  5
1B2
  8
IMPORT_-_POUR_GUYS_INC_FIN
 10
1.096732637083823
 20
0.5268797656078793
 30
0.0
  0
VERTEX
  5
1B3
  8
IMPORT_-_POUR_GUYS_INC_FIN
 10
1.084626016456738
 20
0.5592312001331168
 30
0.0
  0
VERTEX
  5
1B4
  8
IMPORT_-_POUR_GUYS_INC_FIN
 10
1.072720897727049
 20
0.5929575017433247
 30
0.0
  0
VERTEX
  5
1B5
  8
IMPORT_-_POUR_GUYS_INC_FIN
 10
1.067454371518386
 20
0.6102879516093807
 30
0.0
  0
VERTEX
  5
1B6
  8
IMPORT_-_POUR_GUYS_INC_FIN
 10
1.064867109482733
 20
0.6189705237376601
 30
0.0
  0
VERTEX
  5
1B7
  8
IMPORT_-_POUR_GUYS_INC_FIN
 10
1.062067565817899
 20
0.6274673567215736
 30
0.0
  0
VERTEX
  5
1B8
  8
IMPORT_-_POUR_GUYS_INC_FIN
 10
1.058873528767657
 20
0.6356304726052207
 30
0.0
  0
VERTEX
  5
1B9
  8
IMPORT_-_POUR_GUYS_INC_FIN
 10
1.055102786575782
 20
0.6433118934327011
 30
0.0
  0
VERTEX
  5
1BA
  8
IMPORT_-_POUR_GUYS_INC_FIN
 10
1.050573127486048
 20
0.6503636412481146
 30
0.0
  0
VERTEX
  5
1BB
  8
IMPORT_-_POUR_GUYS_INC_FIN
 10
1.047966762930663
 20
0.6536071446650775
 30
0.0
  0
VERTEX
  5
1BC
  8
IMPORT_-_POUR_GUYS_INC_FIN
 10
1.04510233974223
 20
0.6566377380955609
 30
0.0
  0
VERTEX
  5
1BD
  8
IMPORT_-_POUR_GUYS_INC_FIN
 10
1.041469409644494
 20
0.649459987189716
 30
0.0
  0
VERTEX
  5
1BE
  8
IMPORT_-_POUR_GUYS_INC_FIN
 10
1.038134652836957
 20
0.6419833808157827
 30
0.0
  0
VERTEX
  5
1BF
  8
IMPORT_-_POUR_GUYS_INC_FIN
 10
1.032210503539005
 20
0.6262832352220531
 30
0.0
  0
VERTEX
  5
1C0
  8
IMPORT_-_POUR_GUYS_INC_FIN
 10
1.027031580741426
 20
0.6098365684311791
 30
0.0
  0
VERTEX
  5
1C1
  8
IMPORT_-_POUR_GUYS_INC_FIN
 10
1.022299573337275
 20
0.5929426475599673
 30
0.0
  0
VERTEX
  5
1C2
  8
IMPORT_-_POUR_GUYS_INC_FIN
 10
1.017716170219604
 20
0.5759007397252247
 30
0.0
  0
VERTEX
  5
1C3
  8
IMPORT_-_POUR_GUYS_INC_FIN
 10
1.012983060281468
 20
0.559010112043758
 30
0.0
  0
VERTEX
  5
1C4
  8
IMPORT_-_POUR_GUYS_INC_FIN
 10
1.00780193241592
 20
0.5425700316323738
 30
0.0
  0
VERTEX
  5
1C5
  8
IMPORT_-_POUR_GUYS_INC_FIN
 10
1.004950139539446
 20
0.534612467626965
 30
0.0
  0
VERTEX
  5
1C6
  8
IMPORT_-_POUR_GUYS_INC_FIN
 10
1.001874475516014
 20
0.5268797656078793
 30
0.0
  0
VERTEX
  5
1C7
  8
IMPORT_-_POUR_GUYS_INC_FIN
 10
0.777258674542685
 20
0.5268797656078793
 30
0.0
  0
VERTEX
  5
1C8
  8
IMPORT_-_POUR_GUYS_INC_FIN
 10
0.774373281452613
 20
0.5619527752488049
 30
0.0
  0
VERTEX
  5
1C9
  8
IMPORT_-_POUR_GUYS_INC_FIN
 10
0.7704564834331216
 20
0.5984306822140829
 30
0.0
  0
VERTEX
  5
1CA
  8
IMPORT_-_POUR_GUYS_INC_FIN
 10
0.7663306315187441
 20
0.636373330799342
 30
0.0
  0
VERTEX
  5
1CB
  8
IMPORT_-_POUR_GUYS_INC_FIN
 10
0.764446295049265
 20
0.6559126345418486
 30
0.0
  0
VERTEX
  5
1CC
  8
IMPORT_-_POUR_GUYS_INC_FIN
 10
0.7628180767440145
 20
0.6758405653002114
 30
0.0
  0
VERTEX
  5
1CD
  8
IMPORT_-_POUR_GUYS_INC_FIN
 10
0.7610299908108193
 20
0.70961101270745
 30
0.0
  0
VERTEX
  5
1CE
  8
IMPORT_-_POUR_GUYS_INC_FIN
 10
0.7596713598799089
 20
0.7433234629838397
 30
0.0
  0
VERTEX
  5
1CF
  8
IMPORT_-_POUR_GUYS_INC_FIN
 10
0.7587591473213866
 20
0.7598619927441779
 30
0.0
  0
VERTEX
  5
1D0
  8
IMPORT_-_POUR_GUYS_INC_FIN
 10
0.7574815672507269
 20
0.7760308874772577
 30
0.0
  0
VERTEX
  5
1D1
  8
IMPORT_-_POUR_GUYS_INC_FIN
 10
0.7556810425803602
 20
0.791711768601564
 30
0.0
  0
VERTEX
  5
1D2
  8
IMPORT_-_POUR_GUYS_INC_FIN
 10
0.7531999962227172
 20
0.8067862575355812
 30
0.0
  0
VERTEX
  5
1D3
  8
IMPORT_-_POUR_GUYS_INC_FIN
 10
0.7503788223343686
 20
0.820448907514814
 30
0.0
  0
VERTEX
  5
1D4
  8
IMPORT_-_POUR_GUYS_INC_FIN
 10
0.7475664495016188
 20
0.8340271451862281
 30
0.0
  0
VERTEX
  5
1D5
  8
IMPORT_-_POUR_GUYS_INC_FIN
 10
0.7451696863424224
 20
0.8477993039331309
 30
0.0
  0
VERTEX
  5
1D6
  8
IMPORT_-_POUR_GUYS_INC_FIN
 10
0.7435953414747347
 20
0.8620437171388292
 30
0.0
  0
VERTEX
  5
1D7
  8
IMPORT_-_POUR_GUYS_INC_FIN
 10
0.7429655039232825
 20
0.8768688999292542
 30
0.0
  0
VERTEX
  5
1D8
  8
IMPORT_-_POUR_GUYS_INC_FIN
 10
0.7426688292025607
 20
0.8843041268996397
 30
0.0
  0
VERTEX
  5
1D9
  8
IMPORT_-_POUR_GUYS_INC_FIN
 10
0.7421386322592084
 20
0.8916472142161747
 30
0.0
  0
VERTEX
  5
1DA
  8
IMPORT_-_POUR_GUYS_INC_FIN
 10
0.741190649398751
 20
0.8988177393508845
 30
0.0
  0
VERTEX
  5
1DB
  8
IMPORT_-_POUR_GUYS_INC_FIN
 10
0.7396406169267139
 20
0.9057352797757948
 30
0.0
  0
VERTEX
  5
1DC
  8
IMPORT_-_POUR_GUYS_INC_FIN
 10
0.737304271148622
 20
0.9123194129629312
 30
0.0
  0
VERTEX
  5
1DD
  8
IMPORT_-_POUR_GUYS_INC_FIN
 10
0.7339973483700004
 20
0.9184897163843192
 30
0.0
  0
VERTEX
  5
1DE
  8
IMPORT_-_POUR_GUYS_INC_FIN
 10
0.7247186333839027
 20
0.9175676446613472
 30
0.0
  0
VERTEX
  5
1DF
  8
IMPORT_-_POUR_GUYS_INC_FIN
 10
0.7154134362641142
 20
0.917026118833508
 30
0.0
  0
VERTEX
  5
1E0
  8
IMPORT_-_POUR_GUYS_INC_FIN
 10
0.6967429572251715
 20
0.9169238739192337
 30
0.0
  0
VERTEX
  5
1E1
  8
IMPORT_-_POUR_GUYS_INC_FIN
 10
0.6780246344565853
 20
0.9178613197535075
 30
0.0
  0
VERTEX
  5
1E2
  8
IMPORT_-_POUR_GUYS_INC_FIN
 10
0.6592971911617687
 20
0.9195167944483407
 30
0.0
  0
VERTEX
  5
1E3
  8
IMPORT_-_POUR_GUYS_INC_FIN
 10
0.621969835807097
 20
0.9236951828677311
 30
0.0
  0
VERTEX
  5
1E4
  8
IMPORT_-_POUR_GUYS_INC_FIN
 10
0.6034473701540681
 20
0.9255747728163113
 30
0.0
  0
VERTEX
  5
1E5
  8
IMPORT_-_POUR_GUYS_INC_FIN
 10
0.5850706767884617
 20
0.9268857440734967
 30
0.0
  0
VERTEX
  5
1E6
  8
IMPORT_-_POUR_GUYS_INC_FIN
 10
0.5838328642058552
 20
0.9266736403950615
 30
0.0
  0
VERTEX
  5
1E7
  8
IMPORT_-_POUR_GUYS_INC_FIN
 10
0.5833477580600676
 20
0.9255496330197486
 30
0.0
  0
VERTEX
  5
1E8
  8
IMPORT_-_POUR_GUYS_INC_FIN
 10
0.583664378277128
 20
0.9215676902144476
 30
0.0
  0
VERTEX
  5
1E9
  8
IMPORT_-_POUR_GUYS_INC_FIN
 10
0.5840779638360025
 20
0.9169434817295099
 30
0.0
  0
VERTEX
  5
1EA
  8
IMPORT_-_POUR_GUYS_INC_FIN
 10
0.5837140643674823
 20
0.915016642254651
 30
0.0
  0
VERTEX
  5
1EB
  8
IMPORT_-_POUR_GUYS_INC_FIN
 10
0.5826459411330505
 20
0.9136805736368513
 30
0.0
  0
VERTEX
  5
1EC
  8
IMPORT_-_POUR_GUYS_INC_FIN
 10
0.5819233077719012
 20
0.9106388643273231
 30
0.0
  0
VERTEX
  5
1ED
  8
IMPORT_-_POUR_GUYS_INC_FIN
 10
0.5806190048636442
 20
0.9078184028424698
 30
0.0
  0
VERTEX
  5
1EE
  8
IMPORT_-_POUR_GUYS_INC_FIN
 10
0.5771551329293904
 20
0.9026784086222819
 30
0.0
  0
VERTEX
  5
1EF
  8
IMPORT_-_POUR_GUYS_INC_FIN
 10
0.5740338103774543
 20
0.8979349615272768
 30
0.0
  0
VERTEX
  5
1F0
  8
IMPORT_-_POUR_GUYS_INC_FIN
 10
0.5731576941970944
 20
0.8956101839489019
 30
0.0
  0
VERTEX
  5
1F1
  8
IMPORT_-_POUR_GUYS_INC_FIN
 10
0.5730345222550008
 20
0.8932624321084438
 30
0.0
  0
VERTEX
  5
1F2
  8
IMPORT_-_POUR_GUYS_INC_FIN
 10
0.5778162017376369
 20
0.8932238001823538
 30
0.0
  0
VERTEX
  5
1F3
  8
IMPORT_-_POUR_GUYS_INC_FIN
 10
0.5823227233270041
 20
0.8929232840074379
 30
0.0
  0
VERTEX
  5
1F4
  8
IMPORT_-_POUR_GUYS_INC_FIN
 10
0.5843285637255602
 20
0.892526846475094
 30
0.0
  0
VERTEX
  5
1F5
  8
IMPORT_-_POUR_GUYS_INC_FIN
 10
0.586092531227417
 20
0.8918873704586521
 30
0.0
  0
VERTEX
  5
1F6
  8
IMPORT_-_POUR_GUYS_INC_FIN
 10
0.5875569313581139
 20
0.8909456668174816
 30
0.0
  0
VERTEX
  5
1F7
  8
IMPORT_-_POUR_GUYS_INC_FIN
 10
0.5886640696431904
 20
0.889642546410952
 30
0.0
  0
VERTEX
  5
1F8
  8
IMPORT_-_POUR_GUYS_INC_FIN
 10
0.5881553810451059
 20
0.8863213994201377
 30
0.0
  0
VERTEX
  5
1F9
  8
IMPORT_-_POUR_GUYS_INC_FIN
 10
0.5872689383919276
 20
0.8833778717452763
 30
0.0
  0
VERTEX
  5
1FA
  8
IMPORT_-_POUR_GUYS_INC_FIN
 10
0.5860422562131703
 20
0.8807744558377667
 30
0.0
  0
VERTEX
  5
1FB
  8
IMPORT_-_POUR_GUYS_INC_FIN
 10
0.5845128490383483
 20
0.8784736441490082
 30
0.0
  0
VERTEX
  5
1FC
  8
IMPORT_-_POUR_GUYS_INC_FIN
 10
0.5827182313969765
 20
0.8764379291303995
 30
0.0
  0
VERTEX
  5
1FD
  8
IMPORT_-_POUR_GUYS_INC_FIN
 10
0.5806959178185697
 20
0.8746298032333399
 30
0.0
  0
VERTEX
  5
1FE
  8
IMPORT_-_POUR_GUYS_INC_FIN
 10
0.5761182609687093
 20
0.8715462886094638
 30
0.0
  0
VERTEX
  5
1FF
  8
IMPORT_-_POUR_GUYS_INC_FIN
 10
0.5658812353232126
 20
0.8664599966818575
 30
0.0
  0
VERTEX
  5
200
  8
IMPORT_-_POUR_GUYS_INC_FIN
 10
0.5608220989998111
 20
0.8638570986005116
 30
0.0
  0
VERTEX
  5
201
  8
IMPORT_-_POUR_GUYS_INC_FIN
 10
0.5562027019907974
 20
0.8608142852557271
 30
0.0
  0
VERTEX
  5
202
  8
IMPORT_-_POUR_GUYS_INC_FIN
 10
0.5596280997325815
 20
0.8582248636906821
 30
0.0
  0
VERTEX
  5
203
  8
IMPORT_-_POUR_GUYS_INC_FIN
 10
0.563551544983112
 20
0.8561408927057137
 30
0.0
  0
VERTEX
  5
204
  8
IMPORT_-_POUR_GUYS_INC_FIN
 10
0.5654282932244095
 20
0.8550159358260514
 30
0.0
  0
VERTEX
  5
205
  8
IMPORT_-_POUR_GUYS_INC_FIN
 10
0.5671034627031963
 20
0.8536903231657601
 30
0.0
  0
VERTEX
  5
206
  8
IMPORT_-_POUR_GUYS_INC_FIN
 10
0.5684683565395737
 20
0.852055048582957
 30
0.0
  0
VERTEX
  5
207
  8
IMPORT_-_POUR_GUYS_INC_FIN
 10
0.5694142778536424
 20
0.8500011059357592
 30
0.0
  0
VERTEX
  5
208
  8
IMPORT_-_POUR_GUYS_INC_FIN
 10
0.5677514283614303
 20
0.8481511195526142
 30
0.0
  0
VERTEX
  5
209
  8
IMPORT_-_POUR_GUYS_INC_FIN
 10
0.5656355884294642
 20
0.8466614671425674
 30
0.0
  0
VERTEX
  5
20A
  8
IMPORT_-_POUR_GUYS_INC_FIN
 10
0.5631255451577957
 20
0.8455056926189931
 30
0.0
  0
VERTEX
  5
20B
  8
IMPORT_-_POUR_GUYS_INC_FIN
 10
0.5602800856464766
 20
0.8446573398952655
 30
0.0
  0
VERTEX
  5
20C
  8
IMPORT_-_POUR_GUYS_INC_FIN
 10
0.5538180663050931
 20
0.8437770755008478
 30
0.0
  0
VERTEX
  5
20D
  8
IMPORT_-_POUR_GUYS_INC_FIN
 10
0.5467198272057272
 20
0.843809025266309
 30
0.0
  0
VERTEX
  5
20E
  8
IMPORT_-_POUR_GUYS_INC_FIN
 10
0.5394556651487925
 20
0.8445415404986434
 30
0.0
  0
VERTEX
  5
20F
  8
IMPORT_-_POUR_GUYS_INC_FIN
 10
0.5324958769347026
 20
0.8457629725048458
 30
0.0
  0
VERTEX
  5
210
  8
IMPORT_-_POUR_GUYS_INC_FIN
 10
0.5263107593638707
 20
0.8472616725919104
 30
0.0
  0
VERTEX
  5
211
  8
IMPORT_-_POUR_GUYS_INC_FIN
 10
0.5213706092367105
 20
0.8488259920668321
 30
0.0
  0
VERTEX
  5
212
  8
IMPORT_-_POUR_GUYS_INC_FIN
 10
0.5210580993265959
 20
0.8471602494237581
 30
0.0
  0
VERTEX
  5
213
  8
IMPORT_-_POUR_GUYS_INC_FIN
 10
0.5211953489692683
 20
0.8454082596185135
 30
0.0
  0
VERTEX
  5
214
  8
IMPORT_-_POUR_GUYS_INC_FIN
 10
0.5225125125721477
 20
0.8417123691354298
 30
0.0
  0
VERTEX
  5
215
  8
IMPORT_-_POUR_GUYS_INC_FIN
 10
0.5247088713636932
 20
0.837871981845416
 30
0.0
  0
VERTEX
  5
216
  8
IMPORT_-_POUR_GUYS_INC_FIN
 10
0.5271711966622497
 20
0.8340207589763068
 30
0.0
  0
VERTEX
  5
217
  8
IMPORT_-_POUR_GUYS_INC_FIN
 10
0.529286259786162
 20
0.830292361755937
 30
0.0
  0
VERTEX
  5
218
  8
IMPORT_-_POUR_GUYS_INC_FIN
 10
0.5304408320537746
 20
0.8268204514121416
 30
0.0
  0
VERTEX
  5
219
  8
IMPORT_-_POUR_GUYS_INC_FIN
 10
0.5304663001534513
 20
0.8252224479526575
 30
0.0
  0
VERTEX
  5
21A
  8
IMPORT_-_POUR_GUYS_INC_FIN
 10
0.5300216847834325
 20
0.8237386891727552
 30
0.0
  0
VERTEX
  5
21B
  8
IMPORT_-_POUR_GUYS_INC_FIN
 10
0.529030332358511
 20
0.8223858827259137
 30
0.0
  0
VERTEX
  5
21C
  8
IMPORT_-_POUR_GUYS_INC_FIN
 10
0.5274155892934802
 20
0.8211807362656126
 30
0.0
  0
VERTEX
  5
21D
  8
IMPORT_-_POUR_GUYS_INC_FIN
 10
0.5251352270654814
 20
0.8203911473847348
 30
0.0
  0
VERTEX
  5
21E
  8
IMPORT_-_POUR_GUYS_INC_FIN
 10
0.5227698948072028
 20
0.8205033568402261
 30
0.0
  0
VERTEX
  5
21F
  8
IMPORT_-_POUR_GUYS_INC_FIN
 10
0.5203385225047187
 20
0.8214152985693219
 30
0.0
  0
VERTEX
  5
220
  8
IMPORT_-_POUR_GUYS_INC_FIN
 10
0.5178600401441029
 20
0.8230249065092572
 30
0.0
  0
VERTEX
  5
221
  8
IMPORT_-_POUR_GUYS_INC_FIN
 10
0.5153533777114294
 20
0.8252301145972675
 30
0.0
  0
VERTEX
  5
222
  8
IMPORT_-_POUR_GUYS_INC_FIN
 10
0.5128374651927721
 20
0.8279288567705879
 30
0.0
  0
VERTEX
  5
223
  8
IMPORT_-_POUR_GUYS_INC_FIN
 10
0.5078536098418023
 20
0.8343986791221003
 30
0.0
  0
VERTEX
  5
224
  8
IMPORT_-_POUR_GUYS_INC_FIN
 10
0.4986078174953122
 20
0.8487698260871985
 30
0.0
  0
VERTEX
  5
225
  8
IMPORT_-_POUR_GUYS_INC_FIN
 10
0.4946487602769758
 20
0.8550380936965485
 30
0.0
  0
VERTEX
  5
226
  8
IMPORT_-_POUR_GUYS_INC_FIN
 10
0.4913341822133672
 20
0.8596061193876087
 30
0.0
  0
VERTEX
  5
227
  8
IMPORT_-_POUR_GUYS_INC_FIN
 10
0.4892138147960526
 20
0.8610894983957968
 30
0.0
  0
VERTEX
  5
228
  8
IMPORT_-_POUR_GUYS_INC_FIN
 10
0.4867181630658259
 20
0.8621950709545064
 30
0.0
  0
VERTEX
  5
229
  8
IMPORT_-_POUR_GUYS_INC_FIN
 10
0.4841293316006695
 20
0.8632100291514793
 30
0.0
  0
VERTEX
  5
22A
  8
IMPORT_-_POUR_GUYS_INC_FIN
 10
0.4817294249785657
 20
0.8644215650744572
 30
0.0
  0
VERTEX
  5
22B
  8
IMPORT_-_POUR_GUYS_INC_FIN
 10
0.4779380882405254
 20
0.8704318936770966
 30
0.0
  0
VERTEX
  5
22C
  8
IMPORT_-_POUR_GUYS_INC_FIN
 10
0.4736190136422849
 20
0.8759837909308491
 30
0.0
  0
VERTEX
  5
22D
  8
IMPORT_-_POUR_GUYS_INC_FIN
 10
0.4640471562778025
 20
0.8863697259212495
 30
0.0
  0
VERTEX
  5
22E
  8
IMPORT_-_POUR_GUYS_INC_FIN
 10
0.4591191262178603
 20
0.8915324809226757
 30
0.0
  0
VERTEX
  5
22F
  8
IMPORT_-_POUR_GUYS_INC_FIN
 10
0.4543128637103171
 20
0.8968942391047714
 30
0.0
  0
VERTEX
  5
230
  8
IMPORT_-_POUR_GUYS_INC_FIN
 10
0.4497907451083228
 20
0.9026193590999256
 30
0.0
  0
VERTEX
  5
231
  8
IMPORT_-_POUR_GUYS_INC_FIN
 10
0.4457151467650271
 20
0.9088721995405274
 30
0.0
  0
VERTEX
  5
232
  8
IMPORT_-_POUR_GUYS_INC_FIN
 10
0.4414676325874439
 20
0.9170967505674512
 30
0.0
  0
VERTEX
  5
233
  8
IMPORT_-_POUR_GUYS_INC_FIN
 10
0.4378163466900424
 20
0.9257347194111509
 30
0.0
  0
VERTEX
  5
234
  8
IMPORT_-_POUR_GUYS_INC_FIN
 10
0.4314785233582659
 20
0.9437862176957109
 30
0.0
  0
VERTEX
  5
235
  8
IMPORT_-_POUR_GUYS_INC_FIN
 10
0.428380017735132
 20
0.9529674007099878
 30
0.0
  0
VERTEX
  5
236
  8
IMPORT_-_POUR_GUYS_INC_FIN
 10
0.4250538040146618
 20
0.9620973086878738
 30
0.0
  0
VERTEX
  5
237
  8
IMPORT_-_POUR_GUYS_INC_FIN
 10
0.4212938981024756
 20
0.9710597684160771
 30
0.0
  0
VERTEX
  5
238
  8
IMPORT_-_POUR_GUYS_INC_FIN
 10
0.416894315904194
 20
0.979738606681306
 30
0.0
  0
VERTEX
  5
239
  8
IMPORT_-_POUR_GUYS_INC_FIN
 10
0.4163628386762801
 20
0.9810173550416537
 30
0.0
  0
VERTEX
  5
23A
  8
IMPORT_-_POUR_GUYS_INC_FIN
 10
0.4154307224568591
 20
0.9818902718117114
 30
0.0
  0
VERTEX
  5
23B
  8
IMPORT_-_POUR_GUYS_INC_FIN
 10
0.4129533261913022
 20
0.9830143224236512
 30
0.0
  0
VERTEX
  5
23C
  8
IMPORT_-_POUR_GUYS_INC_FIN
 10
0.4117024227190693
 20
0.9835633121868803
 30
0.0
  0
VERTEX
  5
23D
  8
IMPORT_-_POUR_GUYS_INC_FIN
 10
0.4106396334031357
 20
0.9843021822025139
 30
0.0
  0
VERTEX
  5
23E
  8
IMPORT_-_POUR_GUYS_INC_FIN
 10
0.4099121465304529
 20
0.9853798604312252
 30
0.0
  0
VERTEX
  5
23F
  8
IMPORT_-_POUR_GUYS_INC_FIN
 10
0.4096671503879725
 20
0.9869452748336879
 30
0.0
  0
VERTEX
  5
240
  8
IMPORT_-_POUR_GUYS_INC_FIN
 10
0.4079394976492777
 20
0.9930237461617677
 30
0.0
  0
VERTEX
  5
241
  8
IMPORT_-_POUR_GUYS_INC_FIN
 10
0.4067732845203946
 20
0.9996643158577101
 30
0.0
  0
VERTEX
  5
242
  8
IMPORT_-_POUR_GUYS_INC_FIN
 10
0.4055625532790831
 20
1.014066957502755
 30
0.0
  0
VERTEX
  5
243
  8
IMPORT_-_POUR_GUYS_INC_FIN
 10
0.4049097090380772
 20
1.029023614067967
 30
0.0
  0
VERTEX
  5
244
  8
IMPORT_-_POUR_GUYS_INC_FIN
 10
0.4044408546595761
 20
1.036356702414119
 30
0.0
  0
VERTEX
  5
245
  8
IMPORT_-_POUR_GUYS_INC_FIN
 10
0.4036895041714161
 20
1.043404699852493
 30
0.0
  0
VERTEX
  5
246
  8
IMPORT_-_POUR_GUYS_INC_FIN
 10
0.4036895041714161
 20
1.084248003256424
 30
0.0
  0
VERTEX
  5
247
  8
IMPORT_-_POUR_GUYS_INC_FIN
 10
0.404589103845242
 20
1.095811266891944
 30
0.0
  0
VERTEX
  5
248
  8
IMPORT_-_POUR_GUYS_INC_FIN
 10
0.4050504522652542
 20
1.107311948512645
 30
0.0
  0
VERTEX
  5
249
  8
IMPORT_-_POUR_GUYS_INC_FIN
 10
0.4056205351970444
 20
1.129905926047223
 30
0.0
  0
VERTEX
  5
24A
  8
IMPORT_-_POUR_GUYS_INC_FIN
 10
0.4062103396354259
 20
1.140889402129922
 30
0.0
  0
VERTEX
  5
24B
  8
IMPORT_-_POUR_GUYS_INC_FIN
 10
0.4073240326732005
 20
1.15159065653544
 30
0.0
  0
VERTEX
  5
24C
  8
IMPORT_-_POUR_GUYS_INC_FIN
 10
0.40920214927367
 20
1.161954779348189
 30
0.0
  0
VERTEX
  5
24D
  8
IMPORT_-_POUR_GUYS_INC_FIN
 10
0.4105030335859471
 20
1.166993257058652
 30
0.0
  0
SEQEND
  5
3D2
  8
IMPORT_-_POUR_GUYS_INC_FIN
  0
POLYLINE
  5
74
  8
IMPORT_-_POUR_GUYS_INC_FIN
 66
     1
 10
0.0
 20
0.0
 30
0.0
 70
     1
  0
VERTEX
  5
24E
  8
IMPORT_-_POUR_GUYS_INC_FIN
 10
0.9942712858601541
 20
1.785378319828355
 30
0.0
  0
VERTEX
  5
24F
  8
IMPORT_-_POUR_GUYS_INC_FIN
 10
0.9947770262857664
 20
1.69432772454705
 30
0.0
  0
VERTEX
  5
250
  8
IMPORT_-_POUR_GUYS_INC_FIN
 10
0.9950781133442921
 20
1.602236462090041
 30
0.0
  0
VERTEX
  5
251
  8
IMPORT_-_POUR_GUYS_INC_FIN
 10
0.9958136804619564
 20
1.50979144716029
 30
0.0
  0
VERTEX
  5
252
  8
IMPORT_-_POUR_GUYS_INC_FIN
 10
0.9965441232386609
 20
1.463650943362813
 30
0.0
  0
VERTEX
  5
253
  8
IMPORT_-_POUR_GUYS_INC_FIN
 10
0.9976228610649844
 20
1.417679594460761
 30
0.0
  0
VERTEX
  5
254
  8
IMPORT_-_POUR_GUYS_INC_FIN
 10
0.9990996448862215
 20
1.345203324364017
 30
0.0
  0
VERTEX
  5
255
  8
IMPORT_-_POUR_GUYS_INC_FIN
 10
1.000470662310046
 20
1.271915973580137
 30
0.0
  0
VERTEX
  5
256
  8
IMPORT_-_POUR_GUYS_INC_FIN
 10
1.001044114496017
 20
1.254130808112899
 30
0.0
  0
VERTEX
  5
257
  8
IMPORT_-_POUR_GUYS_INC_FIN
 10
1.001411030119599
 20
1.235720498670256
 30
0.0
  0
VERTEX
  5
258
  8
IMPORT_-_POUR_GUYS_INC_FIN
 10
1.001393389575845
 20
1.217396905887508
 30
0.0
  0
VERTEX
  5
259
  8
IMPORT_-_POUR_GUYS_INC_FIN
 10
1.001799208555452
 20
1.208577985555187
 30
0.0
  0
VERTEX
  5
25A
  8
IMPORT_-_POUR_GUYS_INC_FIN
 10
1.00286178228876
 20
1.200478868586654
 30
0.0
  0
VERTEX
  5
25B
  8
IMPORT_-_POUR_GUYS_INC_FIN
 10
1.004406043371706
 20
1.194928789773348
 30
0.0
  0
VERTEX
  5
25C
  8
IMPORT_-_POUR_GUYS_INC_FIN
 10
1.006794461761836
 20
1.189327492371471
 30
0.0
  0
VERTEX
  5
25D
  8
IMPORT_-_POUR_GUYS_INC_FIN
 10
1.009826564233166
 20
1.183753554146249
 30
0.0
  0
VERTEX
  5
25E
  8
IMPORT_-_POUR_GUYS_INC_FIN
 10
1.013301877559715
 20
1.178285552862913
 30
0.0
  0
VERTEX
  5
25F
  8
IMPORT_-_POUR_GUYS_INC_FIN
 10
1.02078024387454
 20
1.167981672182811
 30
0.0
  0
VERTEX
  5
260
  8
IMPORT_-_POUR_GUYS_INC_FIN
 10
1.02762577489845
 20
1.159044472452997
 30
0.0
  0
VERTEX
  5
261
  8
IMPORT_-_POUR_GUYS_INC_FIN
 10
1.034989159809595
 20
1.149366768623274
 30
0.0
  0
VERTEX
  5
262
  8
IMPORT_-_POUR_GUYS_INC_FIN
 10
1.04250555433909
 20
1.140238756051035
 30
0.0
  0
VERTEX
  5
263
  8
IMPORT_-_POUR_GUYS_INC_FIN
 10
1.050438788383969
 20
1.131822245410227
 30
0.0
  0
VERTEX
  5
264
  8
IMPORT_-_POUR_GUYS_INC_FIN
 10
1.0546441670675
 20
1.127931369149718
 30
0.0
  0
VERTEX
  5
265
  8
IMPORT_-_POUR_GUYS_INC_FIN
 10
1.059052691841265
 20
1.124279047374798
 30
0.0
  0
VERTEX
  5
266
  8
IMPORT_-_POUR_GUYS_INC_FIN
 10
1.067573294661213
 20
1.137064322907762
 30
0.0
  0
VERTEX
  5
267
  8
IMPORT_-_POUR_GUYS_INC_FIN
 10
1.07560401208675
 20
1.150137304563921
 30
0.0
  0
VERTEX
  5
268
  8
IMPORT_-_POUR_GUYS_INC_FIN
 10
1.083340038271821
 20
1.163732872916597
 30
0.0
  0
VERTEX
  5
269
  8
IMPORT_-_POUR_GUYS_INC_FIN
 10
1.090976567370374
 20
1.178085908539115
 30
0.0
  0
VERTEX
  5
26A
  8
IMPORT_-_POUR_GUYS_INC_FIN
 10
1.096266693571191
 20
1.187634938565977
 30
0.0
  0
VERTEX
  5
26B
  8
IMPORT_-_POUR_GUYS_INC_FIN
 10
1.098612991580072
 20
1.192508407806057
 30
0.0
  0
VERTEX
  5
26C
  8
IMPORT_-_POUR_GUYS_INC_FIN
 10
1.100030509195394
 20
1.197133698808023
 30
0.0
  0
VERTEX
  5
26D
  8
IMPORT_-_POUR_GUYS_INC_FIN
 10
1.100396649762406
 20
1.201870737274115
 30
0.0
  0
VERTEX
  5
26E
  8
IMPORT_-_POUR_GUYS_INC_FIN
 10
1.100204288408197
 20
1.207080467369341
 30
0.0
  0
VERTEX
  5
26F
  8
IMPORT_-_POUR_GUYS_INC_FIN
 10
1.099526786479035
 20
1.218109881066965
 30
0.0
  0
VERTEX
  5
270
  8
IMPORT_-_POUR_GUYS_INC_FIN
 10
1.098959800170473
 20
1.235161766353862
 30
0.0
  0
VERTEX
  5
271
  8
IMPORT_-_POUR_GUYS_INC_FIN
 10
1.097837124723471
 20
1.252268707479964
 30
0.0
  0
VERTEX
  5
272
  8
IMPORT_-_POUR_GUYS_INC_FIN
 10
1.096262972418908
 20
1.269331540040576
 30
0.0
  0
VERTEX
  5
273
  8
IMPORT_-_POUR_GUYS_INC_FIN
 10
1.094341555537667
 20
1.286251099631
 30
0.0
  0
VERTEX
  5
274
  8
IMPORT_-_POUR_GUYS_INC_FIN
 10
1.089873777168669
 20
1.319263742282504
 30
0.0
  0
VERTEX
  5
275
  8
IMPORT_-_POUR_GUYS_INC_FIN
 10
1.085267487863526
 20
1.350513320196906
 30
0.0
  0
VERTEX
  5
276
  8
IMPORT_-_POUR_GUYS_INC_FIN
 10
1.07958797420266
 20
1.386722288137077
 30
0.0
  0
VERTEX
  5
277
  8
IMPORT_-_POUR_GUYS_INC_FIN
 10
1.073395914350845
 20
1.422541415433297
 30
0.0
  0
VERTEX
  5
278
  8
IMPORT_-_POUR_GUYS_INC_FIN
 10
1.060476592463796
 20
1.493395319182133
 30
0.0
  0
VERTEX
  5
279
  8
IMPORT_-_POUR_GUYS_INC_FIN
 10
1.054746483942735
 20
1.529914268115109
 30
0.0
  0
VERTEX
  5
27A
  8
IMPORT_-_POUR_GUYS_INC_FIN
 10
1.049535253376421
 20
1.566760816165651
 30
0.0
  0
VERTEX
  5
27B
  8
IMPORT_-_POUR_GUYS_INC_FIN
 10
1.034999784810304
 20
1.666861165724598
 30
0.0
  0
VERTEX
  5
27C
  8
IMPORT_-_POUR_GUYS_INC_FIN
 10
1.027698976909741
 20
1.717160071210197
 30
0.0
  0
VERTEX
  5
27D
  8
IMPORT_-_POUR_GUYS_INC_FIN
 10
1.01999578493937
 20
1.767747307348043
 30
0.0
  0
VERTEX
  5
27E
  8
IMPORT_-_POUR_GUYS_INC_FIN
 10
1.018084918195419
 20
1.777990967413727
 30
0.0
  0
VERTEX
  5
27F
  8
IMPORT_-_POUR_GUYS_INC_FIN
 10
1.017458803797945
 20
1.782773735818817
 30
0.0
  0
VERTEX
  5
280
  8
IMPORT_-_POUR_GUYS_INC_FIN
 10
1.017624803620628
 20
1.786345590427948
 30
0.0
  0
VERTEX
  5
281
  8
IMPORT_-_POUR_GUYS_INC_FIN
 10
1.018253832386938
 20
1.787744235055482
 30
0.0
  0
VERTEX
  5
282
  8
IMPORT_-_POUR_GUYS_INC_FIN
 10
1.019377631685984
 20
1.789187311322189
 30
0.0
  0
VERTEX
  5
283
  8
IMPORT_-_POUR_GUYS_INC_FIN
 10
1.022610204480839
 20
1.792099700080981
 30
0.0
  0
VERTEX
  5
284
  8
IMPORT_-_POUR_GUYS_INC_FIN
 10
1.029519885047463
 20
1.797280011655028
 30
0.0
  0
VERTEX
  5
285
  8
IMPORT_-_POUR_GUYS_INC_FIN
 10
1.032822234551947
 20
1.799855044230793
 30
0.0
  0
VERTEX
  5
286
  8
IMPORT_-_POUR_GUYS_INC_FIN
 10
1.035975350436826
 20
1.802355901971164
 30
0.0
  0
VERTEX
  5
287
  8
IMPORT_-_POUR_GUYS_INC_FIN
 10
1.038520194238911
 20
1.805060875022821
 30
0.0
  0
VERTEX
  5
288
  8
IMPORT_-_POUR_GUYS_INC_FIN
 10
1.03942106458916
 20
1.806576870461218
 30
0.0
  0
VERTEX
  5
289
  8
IMPORT_-_POUR_GUYS_INC_FIN
 10
1.039997727495014
 20
1.808248253532443
 30
0.0
  0
VERTEX
  5
28A
  8
IMPORT_-_POUR_GUYS_INC_FIN
 10
1.03161208140035
 20
1.813766379277489
 30
0.0
  0
VERTEX
  5
28B
  8
IMPORT_-_POUR_GUYS_INC_FIN
 10
1.022002348750747
 20
1.818788138938166
 30
0.0
  0
VERTEX
  5
28C
  8
IMPORT_-_POUR_GUYS_INC_FIN
 10
1.011866205365186
 20
1.823061828089237
 30
0.0
  0
VERTEX
  5
28D
  8
IMPORT_-_POUR_GUYS_INC_FIN
 10
1.001901327062644
 20
1.826335742305463
 30
0.0
  0
VERTEX
  5
28E
  8
IMPORT_-_POUR_GUYS_INC_FIN
 10
1.000205038493337
 20
1.826625716550041
 30
0.0
  0
VERTEX
  5
28F
  8
IMPORT_-_POUR_GUYS_INC_FIN
 10
0.9985431446606883
 20
1.826585981489457
 30
0.0
  0
VERTEX
  5
290
  8
IMPORT_-_POUR_GUYS_INC_FIN
 10
0.9952712241333665
 20
1.825772666909935
 30
0.0
  0
VERTEX
  5
291
  8
IMPORT_-_POUR_GUYS_INC_FIN
 10
0.9919829313366778
 20
1.824406365481151
 30
0.0
  0
VERTEX
  5
292
  8
IMPORT_-_POUR_GUYS_INC_FIN
 10
0.9885756321266213
 20
1.822997644117358
 30
0.0
  0
VERTEX
  5
293
  8
IMPORT_-_POUR_GUYS_INC_FIN
 10
0.9831998781883636
 20
1.821009758528779
 30
0.0
  0
VERTEX
  5
294
  8
IMPORT_-_POUR_GUYS_INC_FIN
 10
0.97807093813244
 20
1.818719024389469
 30
0.0
  0
VERTEX
  5
295
  8
IMPORT_-_POUR_GUYS_INC_FIN
 10
0.9738429452918792
 20
1.81662127293071
 30
0.0
  0
VERTEX
  5
296
  8
IMPORT_-_POUR_GUYS_INC_FIN
 10
0.9679683383625308
 20
1.813472006706977
 30
0.0
  0
VERTEX
  5
297
  8
IMPORT_-_POUR_GUYS_INC_FIN
 10
0.9651307992107503
 20
1.811682871885242
 30
0.0
  0
VERTEX
  5
298
  8
IMPORT_-_POUR_GUYS_INC_FIN
 10
0.9627423000521997
 20
1.809846637964658
 30
0.0
  0
VERTEX
  5
299
  8
IMPORT_-_POUR_GUYS_INC_FIN
 10
0.9610897387253549
 20
1.808035231476026
 30
0.0
  0
VERTEX
  5
29A
  8
IMPORT_-_POUR_GUYS_INC_FIN
 10
0.9604600130686913
 20
1.806320578950143
 30
0.0
  0
VERTEX
  5
29B
  8
IMPORT_-_POUR_GUYS_INC_FIN
 10
0.9610018901065496
 20
1.804731390708255
 30
0.0
  0
VERTEX
  5
29C
  8
IMPORT_-_POUR_GUYS_INC_FIN
 10
0.9624966279370859
 20
1.803074318560178
 30
0.0
  0
VERTEX
  5
29D
  8
IMPORT_-_POUR_GUYS_INC_FIN
 10
0.9672874543683351
 20
1.799783841513155
 30
0.0
  0
VERTEX
  5
29E
  8
IMPORT_-_POUR_GUYS_INC_FIN
 10
0.9727180291467246
 20
1.796903785744464
 30
0.0
  0
VERTEX
  5
29F
  8
IMPORT_-_POUR_GUYS_INC_FIN
 10
0.9766738890565394
 20
1.794888789189494
 30
0.0
  0
VERTEX
  5
2A0
  8
IMPORT_-_POUR_GUYS_INC_FIN
 10
0.9853819058396349
 20
1.789846348008974
 30
0.0
  0
SEQEND
  5
3D3
  8
IMPORT_-_POUR_GUYS_INC_FIN
  0
POLYLINE
  5
75
  8
IMPORT_-_POUR_GUYS_INC_FIN
 66
     1
 10
0.0
 20
0.0
 30
0.0
 70
     1
  0
VERTEX
  5
2A1
  8
IMPORT_-_POUR_GUYS_INC_FIN
 10
0.5153928605333351
 20
0.979738606681306
 30
0.0
  0
VERTEX
  5
2A2
  8
IMPORT_-_POUR_GUYS_INC_FIN
 10
0.520143746730193
 20
0.9783059185146225
 30
0.0
  0
VERTEX
  5
2A3
  8
IMPORT_-_POUR_GUYS_INC_FIN
 10
0.5248629116551528
 20
0.97730879072224
 30
0.0
  0
VERTEX
  5
2A4
  8
IMPORT_-_POUR_GUYS_INC_FIN
 10
0.5341295776842716
 20
0.9760535073396734
 30
0.0
  0
VERTEX
  5
2A5
  8
IMPORT_-_POUR_GUYS_INC_FIN
 10
0.5430398586104809
 20
0.9748373386921965
 30
0.0
  0
VERTEX
  5
2A6
  8
IMPORT_-_POUR_GUYS_INC_FIN
 10
0.5473135421568037
 20
0.973889104318676
 30
0.0
  0
VERTEX
  5
2A7
  8
IMPORT_-_POUR_GUYS_INC_FIN
 10
0.5514407544235702
 20
0.9725248669383993
 30
0.0
  0
VERTEX
  5
2A8
  8
IMPORT_-_POUR_GUYS_INC_FIN
 10
0.5619548051440729
 20
0.9678583273937414
 30
0.0
  0
VERTEX
  5
2A9
  8
IMPORT_-_POUR_GUYS_INC_FIN
 10
0.5672995546176579
 20
0.9649366092317746
 30
0.0
  0
VERTEX
  5
2AA
  8
IMPORT_-_POUR_GUYS_INC_FIN
 10
0.5724140798624273
 20
0.961557630712898
 30
0.0
  0
VERTEX
  5
2AB
  8
IMPORT_-_POUR_GUYS_INC_FIN
 10
0.5770818506501026
 20
0.9576726707642482
 30
0.0
  0
VERTEX
  5
2AC
  8
IMPORT_-_POUR_GUYS_INC_FIN
 10
0.5810863367524053
 20
0.9532330083129622
 30
0.0
  0
VERTEX
  5
2AD
  8
IMPORT_-_POUR_GUYS_INC_FIN
 10
0.5827721823502049
 20
0.9507899383135607
 30
0.0
  0
VERTEX
  5
2AE
  8
IMPORT_-_POUR_GUYS_INC_FIN
 10
0.584211007941057
 20
0.9481899222861763
 30
0.0
  0
VERTEX
  5
2AF
  8
IMPORT_-_POUR_GUYS_INC_FIN
 10
0.5853757472464267
 20
0.945426870096701
 30
0.0
  0
VERTEX
  5
2B0
  8
IMPORT_-_POUR_GUYS_INC_FIN
 10
0.5862393339877792
 20
0.9424946916110272
 30
0.0
  0
VERTEX
  5
2B1
  8
IMPORT_-_POUR_GUYS_INC_FIN
 10
0.5979695543566067
 20
0.9525434538738111
 30
0.0
  0
VERTEX
  5
2B2
  8
IMPORT_-_POUR_GUYS_INC_FIN
 10
0.6094841981049812
 20
0.9618133137084841
 30
0.0
  0
VERTEX
  5
2B3
  8
IMPORT_-_POUR_GUYS_INC_FIN
 10
0.6211457238808671
 20
0.9702879907235114
 30
0.0
  0
VERTEX
  5
2B4
  8
IMPORT_-_POUR_GUYS_INC_FIN
 10
0.6333165903322289
 20
0.9779512045273577
 30
0.0
  0
VERTEX
  5
2B5
  8
IMPORT_-_POUR_GUYS_INC_FIN
 10
0.6397062946387021
 20
0.9814734251027335
 30
0.0
  0
VERTEX
  5
2B6
  8
IMPORT_-_POUR_GUYS_INC_FIN
 10
0.6463592561070308
 20
0.9847866747284885
 30
0.0
  0
VERTEX
  5
2B7
  8
IMPORT_-_POUR_GUYS_INC_FIN
 10
0.6533207820682105
 20
0.9878889183556808
 30
0.0
  0
VERTEX
  5
2B8
  8
IMPORT_-_POUR_GUYS_INC_FIN
 10
0.6606361798532372
 20
0.9907781209353688
 30
0.0
  0
VERTEX
  5
2B9
  8
IMPORT_-_POUR_GUYS_INC_FIN
 10
0.668350756793106
 20
0.9934522474186104
 30
0.0
  0
VERTEX
  5
2BA
  8
IMPORT_-_POUR_GUYS_INC_FIN
 10
0.6765098202188125
 20
0.9959092627564639
 30
0.0
  0
VERTEX
  5
2BB
  8
IMPORT_-_POUR_GUYS_INC_FIN
 10
0.6851586774613525
 20
0.9981471318999872
 30
0.0
  0
VERTEX
  5
2BC
  8
IMPORT_-_POUR_GUYS_INC_FIN
 10
0.6943426358517213
 20
1.000163819800238
 30
0.0
  0
VERTEX
  5
2BD
  8
IMPORT_-_POUR_GUYS_INC_FIN
 10
0.706027071635259
 20
1.001830435633014
 30
0.0
  0
VERTEX
  5
2BE
  8
IMPORT_-_POUR_GUYS_INC_FIN
 10
0.7186440542029602
 20
1.003147127836558
 30
0.0
  0
VERTEX
  5
2BF
  8
IMPORT_-_POUR_GUYS_INC_FIN
 10
0.7248726886380377
 20
1.003973337439784
 30
0.0
  0
VERTEX
  5
2C0
  8
IMPORT_-_POUR_GUYS_INC_FIN
 10
0.7308189854977545
 20
1.005070967970599
 30
0.0
  0
VERTEX
  5
2C1
  8
IMPORT_-_POUR_GUYS_INC_FIN
 10
0.736311120024977
 20
1.00655965337397
 30
0.0
  0
VERTEX
  5
2C2
  8
IMPORT_-_POUR_GUYS_INC_FIN
 10
0.7411772674625716
 20
1.008559027594862
 30
0.0
  0
VERTEX
  5
2C3
  8
IMPORT_-_POUR_GUYS_INC_FIN
 10
0.7432141713633127
 20
1.009805486666192
 30
0.0
  0
VERTEX
  5
2C4
  8
IMPORT_-_POUR_GUYS_INC_FIN
 10
0.7451478393352656
 20
1.011405627134428
 30
0.0
  0
VERTEX
  5
2C5
  8
IMPORT_-_POUR_GUYS_INC_FIN
 10
0.7487145685025047
 20
1.015594061651625
 30
0.0
  0
VERTEX
  5
2C6
  8
IMPORT_-_POUR_GUYS_INC_FIN
 10
0.7518956569836837
 20
1.020978549926462
 30
0.0
  0
VERTEX
  5
2C7
  8
IMPORT_-_POUR_GUYS_INC_FIN
 10
0.7547093067981974
 20
1.02741331073895
 30
0.0
  0
VERTEX
  5
2C8
  8
IMPORT_-_POUR_GUYS_INC_FIN
 10
0.7571737199654407
 20
1.034752562869101
 30
0.0
  0
VERTEX
  5
2C9
  8
IMPORT_-_POUR_GUYS_INC_FIN
 10
0.7593070985048085
 20
1.042850525096924
 30
0.0
  0
VERTEX
  5
2CA
  8
IMPORT_-_POUR_GUYS_INC_FIN
 10
0.7611276444356956
 20
1.051561416202432
 30
0.0
  0
VERTEX
  5
2CB
  8
IMPORT_-_POUR_GUYS_INC_FIN
 10
0.7626535597774966
 20
1.060739454965633
 30
0.0
  0
VERTEX
  5
2CC
  8
IMPORT_-_POUR_GUYS_INC_FIN
 10
0.7648943067714203
 20
1.079913850585163
 30
0.0
  0
VERTEX
  5
2CD
  8
IMPORT_-_POUR_GUYS_INC_FIN
 10
0.7661749556417384
 20
1.099207462195599
 30
0.0
  0
VERTEX
  5
2CE
  8
IMPORT_-_POUR_GUYS_INC_FIN
 10
0.7666411225436096
 20
1.117454040037026
 30
0.0
  0
VERTEX
  5
2CF
  8
IMPORT_-_POUR_GUYS_INC_FIN
 10
0.7664384236321924
 20
1.133487334349532
 30
0.0
  0
VERTEX
  5
2D0
  8
IMPORT_-_POUR_GUYS_INC_FIN
 10
0.7659044490887388
 20
1.13922566923936
 30
0.0
  0
VERTEX
  5
2D1
  8
IMPORT_-_POUR_GUYS_INC_FIN
 10
0.7647926854854374
 20
1.144928656985722
 30
0.0
  0
VERTEX
  5
2D2
  8
IMPORT_-_POUR_GUYS_INC_FIN
 10
0.7632110382317124
 20
1.150609433116058
 30
0.0
  0
VERTEX
  5
2D3
  8
IMPORT_-_POUR_GUYS_INC_FIN
 10
0.761267412736988
 20
1.156281133157807
 30
0.0
  0
VERTEX
  5
2D4
  8
IMPORT_-_POUR_GUYS_INC_FIN
 10
0.7567258486622378
 20
1.167649847085309
 30
0.0
  0
VERTEX
  5
2D5
  8
IMPORT_-_POUR_GUYS_INC_FIN
 10
0.7520312365365807
 20
1.179139882987749
 30
0.0
  0
VERTEX
  5
2D6
  8
IMPORT_-_POUR_GUYS_INC_FIN
 10
0.746846870527919
 20
1.191677484709912
 30
0.0
  0
VERTEX
  5
2D7
  8
IMPORT_-_POUR_GUYS_INC_FIN
 10
0.741331044130709
 20
1.203856558714101
 30
0.0
  0
VERTEX
  5
2D8
  8
IMPORT_-_POUR_GUYS_INC_FIN
 10
0.7299262003967268
 20
1.227899242684847
 30
0.0
  0
VERTEX
  5
2D9
  8
IMPORT_-_POUR_GUYS_INC_FIN
 10
0.7243477781729959
 20
1.240142912209549
 30
0.0
  0
VERTEX
  5
2DA
  8
IMPORT_-_POUR_GUYS_INC_FIN
 10
0.7190590857867992
 20
1.252788173132566
 30
0.0
  0
VERTEX
  5
2DB
  8
IMPORT_-_POUR_GUYS_INC_FIN
 10
0.7142154207946574
 20
1.266025055232971
 30
0.0
  0
VERTEX
  5
2DC
  8
IMPORT_-_POUR_GUYS_INC_FIN
 10
0.7099720807530914
 20
1.280043588289835
 30
0.0
  0
VERTEX
  5
2DD
  8
IMPORT_-_POUR_GUYS_INC_FIN
 10
0.7051629620259718
 20
1.299780147632591
 30
0.0
  0
VERTEX
  5
2DE
  8
IMPORT_-_POUR_GUYS_INC_FIN
 10
0.7010792866404076
 20
1.319910294793625
 30
0.0
  0
VERTEX
  5
2DF
  8
IMPORT_-_POUR_GUYS_INC_FIN
 10
0.6943426358517213
 20
1.360507834805118
 30
0.0
  0
VERTEX
  5
2E0
  8
IMPORT_-_POUR_GUYS_INC_FIN
 10
0.6910691219746325
 20
1.383299100267332
 30
0.0
  0
VERTEX
  5
2E1
  8
IMPORT_-_POUR_GUYS_INC_FIN
 10
0.6876646587670261
 20
1.406183699194704
 30
0.0
  0
VERTEX
  5
2E2
  8
IMPORT_-_POUR_GUYS_INC_FIN
 10
0.6857802934731291
 20
1.417159615973724
 30
0.0
  0
VERTEX
  5
2E3
  8
IMPORT_-_POUR_GUYS_INC_FIN
 10
0.683703557617223
 20
1.427557206838113
 30
0.0
  0
VERTEX
  5
2E4
  8
IMPORT_-_POUR_GUYS_INC_FIN
 10
0.681381240122848
 20
1.43717591869423
 30
0.0
  0
VERTEX
  5
2E5
  8
IMPORT_-_POUR_GUYS_INC_FIN
 10
0.678760129913544
 20
1.445815198448435
 30
0.0
  0
VERTEX
  5
2E6
  8
IMPORT_-_POUR_GUYS_INC_FIN
 10
0.6775729994650661
 20
1.445771713611321
 30
0.0
  0
VERTEX
  5
2E7
  8
IMPORT_-_POUR_GUYS_INC_FIN
 10
0.67678379971383
 20
1.445358171289073
 30
0.0
  0
VERTEX
  5
2E8
  8
IMPORT_-_POUR_GUYS_INC_FIN
 10
0.6760777295838161
 20
1.444874239738315
 30
0.0
  0
VERTEX
  5
2E9
  8
IMPORT_-_POUR_GUYS_INC_FIN
 10
0.6751399879990045
 20
1.444619587215668
 30
0.0
  0
VERTEX
  5
2EA
  8
IMPORT_-_POUR_GUYS_INC_FIN
 10
0.6696668475121179
 20
1.438634071257453
 30
0.0
  0
VERTEX
  5
2EB
  8
IMPORT_-_POUR_GUYS_INC_FIN
 10
0.6649165510648518
 20
1.431899298935063
 30
0.0
  0
VERTEX
  5
2EC
  8
IMPORT_-_POUR_GUYS_INC_FIN
 10
0.6608133501887468
 20
1.424480827333578
 30
0.0
  0
VERTEX
  5
2ED
  8
IMPORT_-_POUR_GUYS_INC_FIN
 10
0.6572814964153433
 20
1.416444213538076
 30
0.0
  0
VERTEX
  5
2EE
  8
IMPORT_-_POUR_GUYS_INC_FIN
 10
0.6542452412761819
 20
1.407855014633635
 30
0.0
  0
VERTEX
  5
2EF
  8
IMPORT_-_POUR_GUYS_INC_FIN
 10
0.6516288363028034
 20
1.398778787705336
 30
0.0
  0
VERTEX
  5
2F0
  8
IMPORT_-_POUR_GUYS_INC_FIN
 10
0.6493565330267483
 20
1.389281089838255
 30
0.0
  0
VERTEX
  5
2F1
  8
IMPORT_-_POUR_GUYS_INC_FIN
 10
0.647352582979557
 20
1.379427478117472
 30
0.0
  0
VERTEX
  5
2F2
  8
IMPORT_-_POUR_GUYS_INC_FIN
 10
0.6438467486979285
 20
1.358914741455114
 30
0.0
  0
VERTEX
  5
2F3
  8
IMPORT_-_POUR_GUYS_INC_FIN
 10
0.6405053457102425
 20
1.33776503439889
 30
0.0
  0
VERTEX
  5
2F4
  8
IMPORT_-_POUR_GUYS_INC_FIN
 10
0.6367223862688238
 20
1.316502813629431
 30
0.0
  0
VERTEX
  5
2F5
  8
IMPORT_-_POUR_GUYS_INC_FIN
 10
0.6344759517068159
 20
1.305993403314934
 30
0.0
  0
VERTEX
  5
2F6
  8
IMPORT_-_POUR_GUYS_INC_FIN
 10
0.6318918826259967
 20
1.295652535827365
 30
0.0
  0
VERTEX
  5
2F7
  8
IMPORT_-_POUR_GUYS_INC_FIN
 10
0.6295970034253
 20
1.288308883757413
 30
0.0
  0
VERTEX
  5
2F8
  8
IMPORT_-_POUR_GUYS_INC_FIN
 10
0.6267917305571112
 20
1.281099972179568
 30
0.0
  0
VERTEX
  5
2F9
  8
IMPORT_-_POUR_GUYS_INC_FIN
 10
0.6235501694980694
 20
1.27401368117674
 30
0.0
  0
VERTEX
  5
2FA
  8
IMPORT_-_POUR_GUYS_INC_FIN
 10
0.6199464257248137
 20
1.267037890831836
 30
0.0
  0
VERTEX
  5
2FB
  8
IMPORT_-_POUR_GUYS_INC_FIN
 10
0.6119488119422172
 20
1.253369332447443
 30
0.0
  0
VERTEX
  5
2FC
  8
IMPORT_-_POUR_GUYS_INC_FIN
 10
0.6033917330224351
 20
1.239997337689661
 30
0.0
  0
VERTEX
  5
2FD
  8
IMPORT_-_POUR_GUYS_INC_FIN
 10
0.5948680327785806
 20
1.226824947221763
 30
0.0
  0
VERTEX
  5
2FE
  8
IMPORT_-_POUR_GUYS_INC_FIN
 10
0.5869705550237669
 20
1.213755201707023
 30
0.0
  0
VERTEX
  5
2FF
  8
IMPORT_-_POUR_GUYS_INC_FIN
 10
0.5834419132713484
 20
1.20722852101436
 30
0.0
  0
VERTEX
  5
300
  8
IMPORT_-_POUR_GUYS_INC_FIN
 10
0.5802921435711075
 20
1.200691141808713
 30
0.0
  0
VERTEX
  5
301
  8
IMPORT_-_POUR_GUYS_INC_FIN
 10
0.5775953513996832
 20
1.194130944172993
 30
0.0
  0
VERTEX
  5
302
  8
IMPORT_-_POUR_GUYS_INC_FIN
 10
0.5754256422337152
 20
1.187535808190108
 30
0.0
  0
VERTEX
  5
303
  8
IMPORT_-_POUR_GUYS_INC_FIN
 10
0.5717638025959711
 20
1.173761403540644
 30
0.0
  0
VERTEX
  5
304
  8
IMPORT_-_POUR_GUYS_INC_FIN
 10
0.5684319545024799
 20
1.160796330896962
 30
0.0
  0
VERTEX
  5
305
  8
IMPORT_-_POUR_GUYS_INC_FIN
 10
0.56469965837925
 20
1.148288451953724
 30
0.0
  0
VERTEX
  5
306
  8
IMPORT_-_POUR_GUYS_INC_FIN
 10
0.5624550799396107
 20
1.142095916899353
 30
0.0
  0
VERTEX
  5
307
  8
IMPORT_-_POUR_GUYS_INC_FIN
 10
0.5598364746522901
 20
1.13588562840559
 30
0.0
  0
VERTEX
  5
308
  8
IMPORT_-_POUR_GUYS_INC_FIN
 10
0.5529577771321951
 20
1.121736970917001
 30
0.0
  0
VERTEX
  5
309
  8
IMPORT_-_POUR_GUYS_INC_FIN
 10
0.5457158342977304
 20
1.108279332007874
 30
0.0
  0
VERTEX
  5
30A
  8
IMPORT_-_POUR_GUYS_INC_FIN
 10
0.5305933724746555
 20
1.082334868991598
 30
0.0
  0
VERTEX
  5
30B
  8
IMPORT_-_POUR_GUYS_INC_FIN
 10
0.5229384333805269
 20
1.069296924416244
 30
0.0
  0
VERTEX
  5
30C
  8
IMPORT_-_POUR_GUYS_INC_FIN
 10
0.5153714087609915
 20
1.055847757483945
 30
0.0
  0
VERTEX
  5
30D
  8
IMPORT_-_POUR_GUYS_INC_FIN
 10
0.5080050885632905
 20
1.041711807960598
 30
0.0
  0
VERTEX
  5
30E
  8
IMPORT_-_POUR_GUYS_INC_FIN
 10
0.5009522627346645
 20
1.026613515612101
 30
0.0
  0
VERTEX
  5
30F
  8
IMPORT_-_POUR_GUYS_INC_FIN
 10
0.4945547152090003
 20
1.015270812519041
 30
0.0
  0
VERTEX
  5
310
  8
IMPORT_-_POUR_GUYS_INC_FIN
 10
0.4906645541543611
 20
1.008440887515388
 30
0.0
  0
VERTEX
  5
311
  8
IMPORT_-_POUR_GUYS_INC_FIN
 10
0.4889429597478339
 20
1.004965942200591
 30
0.0
  0
VERTEX
  5
312
  8
IMPORT_-_POUR_GUYS_INC_FIN
 10
0.4891974175805534
 20
1.003855140849939
 30
0.0
  0
VERTEX
  5
313
  8
IMPORT_-_POUR_GUYS_INC_FIN
 10
0.4898852449816864
 20
1.002483041572148
 30
0.0
  0
VERTEX
  5
314
  8
IMPORT_-_POUR_GUYS_INC_FIN
 10
0.4923493958267098
 20
0.9991256723590654
 30
0.0
  0
VERTEX
  5
315
  8
IMPORT_-_POUR_GUYS_INC_FIN
 10
0.495912186957938
 20
0.9952352808091676
 30
0.0
  0
VERTEX
  5
316
  8
IMPORT_-_POUR_GUYS_INC_FIN
 10
0.500150393050405
 20
0.9911533131702792
 30
0.0
  0
VERTEX
  5
317
  8
IMPORT_-_POUR_GUYS_INC_FIN
 10
0.5089601488191899
 20
0.983780434616828
 30
0.0
  0
VERTEX
  5
318
  8
IMPORT_-_POUR_GUYS_INC_FIN
 10
0.5126852478455756
 20
0.9811724161979135
 30
0.0
  0
SEQEND
  5
3D4
  8
IMPORT_-_POUR_GUYS_INC_FIN
  0
POLYLINE
  5
76
  8
IMPORT_-_POUR_GUYS_INC_FIN
 66
     1
 10
0.0
 20
0.0
 30
0.0
 70
     1
  0
VERTEX
  5
319
  8
IMPORT_-_POUR_GUYS_INC_FIN
 10
0.5141771618840054
 20
0.8992404370288672
 30
0.0
  0
VERTEX
  5
31A
  8
IMPORT_-_POUR_GUYS_INC_FIN
 10
0.5275465290158585
 20
0.8958240581271726
 30
0.0
  0
VERTEX
  5
31B
  8
IMPORT_-_POUR_GUYS_INC_FIN
 10
0.5405934469928093
 20
0.8920605179362965
 30
0.0
  0
VERTEX
  5
31C
  8
IMPORT_-_POUR_GUYS_INC_FIN
 10
0.5460387492472193
 20
0.8957757663179496
 30
0.0
  0
VERTEX
  5
31D
  8
IMPORT_-_POUR_GUYS_INC_FIN
 10
0.5508860877512867
 20
0.9000890655237079
 30
0.0
  0
VERTEX
  5
31E
  8
IMPORT_-_POUR_GUYS_INC_FIN
 10
0.559704638170244
 20
0.9095923808244599
 30
0.0
  0
VERTEX
  5
31F
  8
IMPORT_-_POUR_GUYS_INC_FIN
 10
0.5641347324160593
 20
0.9143236791279139
 30
0.0
  0
VERTEX
  5
320
  8
IMPORT_-_POUR_GUYS_INC_FIN
 10
0.5688846275733825
 20
0.9187355926723935
 30
0.0
  0
VERTEX
  5
321
  8
IMPORT_-_POUR_GUYS_INC_FIN
 10
0.5741837648076762
 20
0.9225987625621286
 30
0.0
  0
VERTEX
  5
322
  8
IMPORT_-_POUR_GUYS_INC_FIN
 10
0.5771109995678942
 20
0.9242528939815389
 30
0.0
  0
VERTEX
  5
323
  8
IMPORT_-_POUR_GUYS_INC_FIN
 10
0.5802615852844033
 20
0.9256838299013493
 30
0.0
  0
VERTEX
  5
324
  8
IMPORT_-_POUR_GUYS_INC_FIN
 10
0.5776819055719301
 20
0.9267673790034272
 30
0.0
  0
VERTEX
  5
325
  8
IMPORT_-_POUR_GUYS_INC_FIN
 10
0.5753559768183654
 20
0.9279756465576866
 30
0.0
  0
VERTEX
  5
326
  8
IMPORT_-_POUR_GUYS_INC_FIN
 10
0.5746909722760581
 20
0.9286985402393602
 30
0.0
  0
VERTEX
  5
327
  8
IMPORT_-_POUR_GUYS_INC_FIN
 10
0.5745727693433392
 20
0.92953900211605
 30
0.0
  0
VERTEX
  5
328
  8
IMPORT_-_POUR_GUYS_INC_FIN
 10
0.5751624893101626
 20
0.9305258283817464
 30
0.0
  0
VERTEX
  5
329
  8
IMPORT_-_POUR_GUYS_INC_FIN
 10
0.5766212534664819
 20
0.9316878152304399
 30
0.0
  0
VERTEX
  5
32A
  8
IMPORT_-_POUR_GUYS_INC_FIN
 10
0.5721613218446644
 20
0.9315410680296436
 30
0.0
  0
VERTEX
  5
32B
  8
IMPORT_-_POUR_GUYS_INC_FIN
 10
0.5677438059542947
 20
0.9319299404408805
 30
0.0
  0
VERTEX
  5
32C
  8
IMPORT_-_POUR_GUYS_INC_FIN
 10
0.563358384852239
 20
0.9327610252114846
 30
0.0
  0
VERTEX
  5
32D
  8
IMPORT_-_POUR_GUYS_INC_FIN
 10
0.5589947375953626
 20
0.9339409150887901
 30
0.0
  0
VERTEX
  5
32E
  8
IMPORT_-_POUR_GUYS_INC_FIN
 10
0.5502914808446118
 20
0.9369734811528418
 30
0.0
  0
VERTEX
  5
32F
  8
IMPORT_-_POUR_GUYS_INC_FIN
 10
0.5415514681569696
 20
0.9402803806117086
 30
0.0
  0
VERTEX
  5
330
  8
IMPORT_-_POUR_GUYS_INC_FIN
 10
0.5326921319873628
 20
0.9431143554440633
 30
0.0
  0
VERTEX
  5
331
  8
IMPORT_-_POUR_GUYS_INC_FIN
 10
0.5281919152389873
 20
0.9441204779936341
 30
0.0
  0
VERTEX
  5
332
  8
IMPORT_-_POUR_GUYS_INC_FIN
 10
0.5236309047907182
 20
0.944728147628579
 30
0.0
  0
VERTEX
  5
333
  8
IMPORT_-_POUR_GUYS_INC_FIN
 10
0.5189987796994213
 20
0.9448439570962326
 30
0.0
  0
VERTEX
  5
334
  8
IMPORT_-_POUR_GUYS_INC_FIN
 10
0.5142852190219627
 20
0.9443744991439287
 30
0.0
  0
VERTEX
  5
335
  8
IMPORT_-_POUR_GUYS_INC_FIN
 10
0.5094799018152079
 20
0.9432263665190015
 30
0.0
  0
VERTEX
  5
336
  8
IMPORT_-_POUR_GUYS_INC_FIN
 10
0.504572507136023
 20
0.9413061519687852
 30
0.0
  0
VERTEX
  5
337
  8
IMPORT_-_POUR_GUYS_INC_FIN
 10
0.5037017212711095
 20
0.9352580590750517
 30
0.0
  0
VERTEX
  5
338
  8
IMPORT_-_POUR_GUYS_INC_FIN
 10
0.5037090989209048
 20
0.9293599216123882
 30
0.0
  0
VERTEX
  5
339
  8
IMPORT_-_POUR_GUYS_INC_FIN
 10
0.5044514680006846
 20
0.9236496016547232
 30
0.0
  0
VERTEX
  5
33A
  8
IMPORT_-_POUR_GUYS_INC_FIN
 10
0.505785656425725
 20
0.9181649612759848
 30
0.0
  0
VERTEX
  5
33B
  8
IMPORT_-_POUR_GUYS_INC_FIN
 10
0.5075684921113015
 20
0.9129438625501016
 30
0.0
  0
VERTEX
  5
33C
  8
IMPORT_-_POUR_GUYS_INC_FIN
 10
0.5096568029726899
 20
0.9080241675510021
 30
0.0
  0
SEQEND
  5
3D5
  8
IMPORT_-_POUR_GUYS_INC_FIN
  0
POLYLINE
  5
77
  8
IMPORT_-_POUR_GUYS_INC_FIN
 66
     1
 10
0.0
 20
0.0
 30
0.0
 70
     1
  0
VERTEX
  5
33D
  8
IMPORT_-_POUR_GUYS_INC_FIN
 10
1.529165944767008
 20
1.02297948673356
 30
0.0
  0
VERTEX
  5
33E
  8
IMPORT_-_POUR_GUYS_INC_FIN
 10
1.527538914343042
 20
1.025097045271401
 30
0.0
  0
VERTEX
  5
33F
  8
IMPORT_-_POUR_GUYS_INC_FIN
 10
1.525602392991418
 20
1.026908257295298
 30
0.0
  0
VERTEX
  5
340
  8
IMPORT_-_POUR_GUYS_INC_FIN
 10
1.521149722020283
 20
1.029957974388424
 30
0.0
  0
VERTEX
  5
341
  8
IMPORT_-_POUR_GUYS_INC_FIN
 10
1.516505620883773
 20
1.032821303187272
 30
0.0
  0
VERTEX
  5
342
  8
IMPORT_-_POUR_GUYS_INC_FIN
 10
1.51432981182543
 20
1.034399529843321
 30
0.0
  0
VERTEX
  5
343
  8
IMPORT_-_POUR_GUYS_INC_FIN
 10
1.512367778612058
 20
1.036190908866176
 30
0.0
  0
VERTEX
  5
344
  8
IMPORT_-_POUR_GUYS_INC_FIN
 10
1.513462898315888
 20
1.038694420855029
 30
0.0
  0
VERTEX
  5
345
  8
IMPORT_-_POUR_GUYS_INC_FIN
 10
1.515093863948469
 20
1.040666271259794
 30
0.0
  0
VERTEX
  5
346
  8
IMPORT_-_POUR_GUYS_INC_FIN
 10
1.516864618399724
 20
1.042504558920153
 30
0.0
  0
VERTEX
  5
347
  8
IMPORT_-_POUR_GUYS_INC_FIN
 10
1.518379104559574
 20
1.044607382675784
 30
0.0
  0
VERTEX
  5
348
  8
IMPORT_-_POUR_GUYS_INC_FIN
 10
1.525199395201713
 20
1.042881677586993
 30
0.0
  0
VERTEX
  5
349
  8
IMPORT_-_POUR_GUYS_INC_FIN
 10
1.531860994212124
 20
1.040439474334335
 30
0.0
  0
VERTEX
  5
34A
  8
IMPORT_-_POUR_GUYS_INC_FIN
 10
1.535138578061991
 20
1.039357791613316
 30
0.0
  0
VERTEX
  5
34B
  8
IMPORT_-_POUR_GUYS_INC_FIN
 10
1.538384041451796
 20
1.038586711211443
 30
0.0
  0
VERTEX
  5
34C
  8
IMPORT_-_POUR_GUYS_INC_FIN
 10
1.541599901864165
 20
1.03828947541542
 30
0.0
  0
VERTEX
  5
34D
  8
IMPORT_-_POUR_GUYS_INC_FIN
 10
1.54478867678172
 20
1.038629326511951
 30
0.0
  0
VERTEX
  5
34E
  8
IMPORT_-_POUR_GUYS_INC_FIN
 10
1.546141574255673
 20
1.042363632337651
 30
0.0
  0
VERTEX
  5
34F
  8
IMPORT_-_POUR_GUYS_INC_FIN
 10
1.54703289311461
 20
1.046560743017146
 30
0.0
  0
VERTEX
  5
350
  8
IMPORT_-_POUR_GUYS_INC_FIN
 10
1.548001026645214
 20
1.050686119328627
 30
0.0
  0
VERTEX
  5
351
  8
IMPORT_-_POUR_GUYS_INC_FIN
 10
1.548682146814479
 20
1.052554863589549
 30
0.0
  0
VERTEX
  5
352
  8
IMPORT_-_POUR_GUYS_INC_FIN
 10
1.549584368134168
 20
1.05420522205029
 30
0.0
  0
VERTEX
  5
353
  8
IMPORT_-_POUR_GUYS_INC_FIN
 10
1.543460946827816
 20
1.063460379930562
 30
0.0
  0
VERTEX
  5
354
  8
IMPORT_-_POUR_GUYS_INC_FIN
 10
1.53996916249826
 20
1.068567263001451
 30
0.0
  0
VERTEX
  5
355
  8
IMPORT_-_POUR_GUYS_INC_FIN
 10
1.536156240825071
 20
1.073464948655874
 30
0.0
  0
VERTEX
  5
356
  8
IMPORT_-_POUR_GUYS_INC_FIN
 10
1.531996365638712
 20
1.077756886766103
 30
0.0
  0
VERTEX
  5
357
  8
IMPORT_-_POUR_GUYS_INC_FIN
 10
1.529778252925114
 20
1.079551778577231
 30
0.0
  0
VERTEX
  5
358
  8
IMPORT_-_POUR_GUYS_INC_FIN
 10
1.527463720769648
 20
1.081046527204413
 30
0.0
  0
VERTEX
  5
359
  8
IMPORT_-_POUR_GUYS_INC_FIN
 10
1.525049542151122
 20
1.082191563881684
 30
0.0
  0
VERTEX
  5
35A
  8
IMPORT_-_POUR_GUYS_INC_FIN
 10
1.522532490048344
 20
1.082937319843078
 30
0.0
  0
VERTEX
  5
35B
  8
IMPORT_-_POUR_GUYS_INC_FIN
 10
1.519909337440122
 20
1.083234226322629
 30
0.0
  0
VERTEX
  5
35C
  8
IMPORT_-_POUR_GUYS_INC_FIN
 10
1.517176857305264
 20
1.083032714554371
 30
0.0
  0
VERTEX
  5
35D
  8
IMPORT_-_POUR_GUYS_INC_FIN
 10
1.515608297988664
 20
1.08242696140543
 30
0.0
  0
VERTEX
  5
35E
  8
IMPORT_-_POUR_GUYS_INC_FIN
 10
1.513578657578512
 20
1.081141384360329
 30
0.0
  0
VERTEX
  5
35F
  8
IMPORT_-_POUR_GUYS_INC_FIN
 10
1.508838225437551
 20
1.077121121092788
 30
0.0
  0
VERTEX
  5
360
  8
IMPORT_-_POUR_GUYS_INC_FIN
 10
1.504359744802391
 20
1.072152649774023
 30
0.0
  0
VERTEX
  5
361
  8
IMPORT_-_POUR_GUYS_INC_FIN
 10
1.50265754377449
 20
1.069681812664895
 30
0.0
  0
VERTEX
  5
362
  8
IMPORT_-_POUR_GUYS_INC_FIN
 10
1.501547399593042
 20
1.067416695426316
 30
0.0
  0
VERTEX
  5
363
  8
IMPORT_-_POUR_GUYS_INC_FIN
 10
1.500214575248549
 20
1.062053190764733
 30
0.0
  0
VERTEX
  5
364
  8
IMPORT_-_POUR_GUYS_INC_FIN
 10
1.499555509211901
 20
1.05613039931705
 30
0.0
  0
VERTEX
  5
365
  8
IMPORT_-_POUR_GUYS_INC_FIN
 10
1.498986700759755
 20
1.043616303107006
 30
0.0
  0
VERTEX
  5
366
  8
IMPORT_-_POUR_GUYS_INC_FIN
 10
1.498440982693063
 20
1.037529671866456
 30
0.0
  0
VERTEX
  5
367
  8
IMPORT_-_POUR_GUYS_INC_FIN
 10
1.497297071631831
 20
1.031893100883428
 30
0.0
  0
VERTEX
  5
368
  8
IMPORT_-_POUR_GUYS_INC_FIN
 10
1.496401422532762
 20
1.029322443226268
 30
0.0
  0
VERTEX
  5
369
  8
IMPORT_-_POUR_GUYS_INC_FIN
 10
1.49523697975046
 20
1.026958926918828
 30
0.0
  0
VERTEX
  5
36A
  8
IMPORT_-_POUR_GUYS_INC_FIN
 10
1.493763994806724
 20
1.024834094056221
 30
0.0
  0
VERTEX
  5
36B
  8
IMPORT_-_POUR_GUYS_INC_FIN
 10
1.491942719223355
 20
1.02297948673356
 30
0.0
  0
VERTEX
  5
36C
  8
IMPORT_-_POUR_GUYS_INC_FIN
 10
1.493834338806295
 20
1.021228802496796
 30
0.0
  0
VERTEX
  5
36D
  8
IMPORT_-_POUR_GUYS_INC_FIN
 10
1.495819290916099
 20
1.019883725935638
 30
0.0
  0
VERTEX
  5
36E
  8
IMPORT_-_POUR_GUYS_INC_FIN
 10
1.497889999497397
 20
1.018907360669221
 30
0.0
  0
VERTEX
  5
36F
  8
IMPORT_-_POUR_GUYS_INC_FIN
 10
1.500038888494819
 20
1.018262810316679
 30
0.0
  0
VERTEX
  5
370
  8
IMPORT_-_POUR_GUYS_INC_FIN
 10
1.504540903516558
 20
1.017821568829763
 30
0.0
  0
VERTEX
  5
371
  8
IMPORT_-_POUR_GUYS_INC_FIN
 10
1.509264727538357
 20
1.018264830427967
 30
0.0
  0
VERTEX
  5
372
  8
IMPORT_-_POUR_GUYS_INC_FIN
 10
1.519135368810308
 20
1.020624178692052
 30
0.0
  0
VERTEX
  5
373
  8
IMPORT_-_POUR_GUYS_INC_FIN
 10
1.524160969174543
 20
1.021949923264089
 30
0.0
  0
SEQEND
  5
3D6
  8
IMPORT_-_POUR_GUYS_INC_FIN
  0
POLYLINE
  5
78
  8
IMPORT_-_POUR_GUYS_INC_FIN
 66
     1
 10
0.0
 20
0.0
 30
0.0
 70
     1
  0
VERTEX
  5
374
  8
IMPORT_-_POUR_GUYS_INC_FIN
 10
1.237290439983272
 20
1.121484846736178
 30
0.0
  0
VERTEX
  5
375
  8
IMPORT_-_POUR_GUYS_INC_FIN
 10
1.245262594999098
 20
1.107871620224825
 30
0.0
  0
VERTEX
  5
376
  8
IMPORT_-_POUR_GUYS_INC_FIN
 10
1.253403507373587
 20
1.095207187861192
 30
0.0
  0
VERTEX
  5
377
  8
IMPORT_-_POUR_GUYS_INC_FIN
 10
1.257689158257747
 20
1.089285695013586
 30
0.0
  0
VERTEX
  5
378
  8
IMPORT_-_POUR_GUYS_INC_FIN
 10
1.262199291306473
 20
1.08366731133749
 30
0.0
  0
VERTEX
  5
379
  8
IMPORT_-_POUR_GUYS_INC_FIN
 10
1.266994670794733
 20
1.078374007044429
 30
0.0
  0
VERTEX
  5
37A
  8
IMPORT_-_POUR_GUYS_INC_FIN
 10
1.272136060997493
 20
1.073427752345931
 30
0.0
  0
VERTEX
  5
37B
  8
IMPORT_-_POUR_GUYS_INC_FIN
 10
1.286320568912142
 20
1.072594951796847
 30
0.0
  0
VERTEX
  5
37C
  8
IMPORT_-_POUR_GUYS_INC_FIN
 10
1.300173511086496
 20
1.071431418300449
 30
0.0
  0
VERTEX
  5
37D
  8
IMPORT_-_POUR_GUYS_INC_FIN
 10
1.313710275293431
 20
1.069952442835115
 30
0.0
  0
VERTEX
  5
37E
  8
IMPORT_-_POUR_GUYS_INC_FIN
 10
1.326946249305821
 20
1.068173316379221
 30
0.0
  0
VERTEX
  5
37F
  8
IMPORT_-_POUR_GUYS_INC_FIN
 10
1.339896820896541
 20
1.066109329911146
 30
0.0
  0
VERTEX
  5
380
  8
IMPORT_-_POUR_GUYS_INC_FIN
 10
1.352577377838466
 20
1.063775774409268
 30
0.0
  0
VERTEX
  5
381
  8
IMPORT_-_POUR_GUYS_INC_FIN
 10
1.377189998867429
 20
1.058361120217614
 30
0.0
  0
VERTEX
  5
382
  8
IMPORT_-_POUR_GUYS_INC_FIN
 10
1.40090721457571
 20
1.052051681631279
 30
0.0
  0
VERTEX
  5
383
  8
IMPORT_-_POUR_GUYS_INC_FIN
 10
1.423852127146308
 20
1.044969786477286
 30
0.0
  0
VERTEX
  5
384
  8
IMPORT_-_POUR_GUYS_INC_FIN
 10
1.44614783876222
 20
1.037237762582657
 30
0.0
  0
VERTEX
  5
385
  8
IMPORT_-_POUR_GUYS_INC_FIN
 10
1.467917451606445
 20
1.028977937774414
 30
0.0
  0
VERTEX
  5
386
  8
IMPORT_-_POUR_GUYS_INC_FIN
 10
1.466649346856322
 20
1.035153130537688
 30
0.0
  0
VERTEX
  5
387
  8
IMPORT_-_POUR_GUYS_INC_FIN
 10
1.466068006043943
 20
1.041048253246477
 30
0.0
  0
VERTEX
  5
388
  8
IMPORT_-_POUR_GUYS_INC_FIN
 10
1.46607750146901
 20
1.046694927488233
 30
0.0
  0
VERTEX
  5
389
  8
IMPORT_-_POUR_GUYS_INC_FIN
 10
1.46658190543122
 20
1.052124774850409
 30
0.0
  0
VERTEX
  5
38A
  8
IMPORT_-_POUR_GUYS_INC_FIN
 10
1.468691728165865
 20
1.062460475285837
 30
0.0
  0
VERTEX
  5
38B
  8
IMPORT_-_POUR_GUYS_INC_FIN
 10
1.471630052645467
 20
1.072308327252386
 30
0.0
  0
VERTEX
  5
38C
  8
IMPORT_-_POUR_GUYS_INC_FIN
 10
1.474629457267616
 20
1.08192130344968
 30
0.0
  0
VERTEX
  5
38D
  8
IMPORT_-_POUR_GUYS_INC_FIN
 10
1.475912245381391
 20
1.08671876710349
 30
0.0
  0
VERTEX
  5
38E
  8
IMPORT_-_POUR_GUYS_INC_FIN
 10
1.4769225204299
 20
1.091552376577345
 30
0.0
  0
VERTEX
  5
38F
  8
IMPORT_-_POUR_GUYS_INC_FIN
 10
1.47756435471284
 20
1.0964537534587
 30
0.0
  0
VERTEX
  5
390
  8
IMPORT_-_POUR_GUYS_INC_FIN
 10
1.477741820529909
 20
1.101454519335007
 30
0.0
  0
VERTEX
  5
391
  8
IMPORT_-_POUR_GUYS_INC_FIN
 10
1.477358990180807
 20
1.10658629579372
 30
0.0
  0
VERTEX
  5
392
  8
IMPORT_-_POUR_GUYS_INC_FIN
 10
1.476319935965232
 20
1.111880704422291
 30
0.0
  0
VERTEX
  5
393
  8
IMPORT_-_POUR_GUYS_INC_FIN
 10
1.471602173027932
 20
1.111409112124429
 30
0.0
  0
VERTEX
  5
394
  8
IMPORT_-_POUR_GUYS_INC_FIN
 10
1.466873072486258
 20
1.110658734860712
 30
0.0
  0
VERTEX
  5
395
  8
IMPORT_-_POUR_GUYS_INC_FIN
 10
1.461761126026043
 20
1.110217095937117
 30
0.0
  0
VERTEX
  5
396
  8
IMPORT_-_POUR_GUYS_INC_FIN
 10
1.458945489228305
 20
1.110295654385982
 30
0.0
  0
VERTEX
  5
397
  8
IMPORT_-_POUR_GUYS_INC_FIN
 10
1.455894825333119
 20
1.110671718659619
 30
0.0
  0
VERTEX
  5
398
  8
IMPORT_-_POUR_GUYS_INC_FIN
 10
1.451578928126528
 20
1.111761708280125
 30
0.0
  0
VERTEX
  5
399
  8
IMPORT_-_POUR_GUYS_INC_FIN
 10
1.447227621924074
 20
1.11349405883596
 30
0.0
  0
VERTEX
  5
39A
  8
IMPORT_-_POUR_GUYS_INC_FIN
 10
1.442856028735996
 20
1.115798627682503
 30
0.0
  0
VERTEX
  5
39B
  8
IMPORT_-_POUR_GUYS_INC_FIN
 10
1.438479270572537
 20
1.11860527217513
 30
0.0
  0
VERTEX
  5
39C
  8
IMPORT_-_POUR_GUYS_INC_FIN
 10
1.429770747360432
 20
1.125444217520144
 30
0.0
  0
VERTEX
  5
39D
  8
IMPORT_-_POUR_GUYS_INC_FIN
 10
1.421223028369685
 20
1.133449753714017
 30
0.0
  0
VERTEX
  5
39E
  8
IMPORT_-_POUR_GUYS_INC_FIN
 10
1.405093907379957
 20
1.150716034020402
 30
0.0
  0
VERTEX
  5
39F
  8
IMPORT_-_POUR_GUYS_INC_FIN
 10
1.397754457544826
 20
1.158854495818945
 30
0.0
  0
VERTEX
  5
3A0
  8
IMPORT_-_POUR_GUYS_INC_FIN
 10
1.391059716258747
 20
1.165914983838408
 30
0.0
  0
VERTEX
  5
3A1
  8
IMPORT_-_POUR_GUYS_INC_FIN
 10
1.376385047772828
 20
1.18157212420131
 30
0.0
  0
VERTEX
  5
3A2
  8
IMPORT_-_POUR_GUYS_INC_FIN
 10
1.361933285716631
 20
1.197686294926287
 30
0.0
  0
VERTEX
  5
3A3
  8
IMPORT_-_POUR_GUYS_INC_FIN
 10
1.354579659822598
 20
1.205500388644357
 30
0.0
  0
VERTEX
  5
3A4
  8
IMPORT_-_POUR_GUYS_INC_FIN
 10
1.3470281588035
 20
1.212931486316709
 30
0.0
  0
VERTEX
  5
3A5
  8
IMPORT_-_POUR_GUYS_INC_FIN
 10
1.339194248748507
 20
1.219813836731264
 30
0.0
  0
VERTEX
  5
3A6
  8
IMPORT_-_POUR_GUYS_INC_FIN
 10
1.330993395746785
 20
1.225981688675943
 30
0.0
  0
VERTEX
  5
3A7
  8
IMPORT_-_POUR_GUYS_INC_FIN
 10
1.322308012537166
 20
1.230817388320436
 30
0.0
  0
VERTEX
  5
3A8
  8
IMPORT_-_POUR_GUYS_INC_FIN
 10
1.317946747198073
 20
1.233133271764363
 30
0.0
  0
VERTEX
  5
3A9
  8
IMPORT_-_POUR_GUYS_INC_FIN
 10
1.31416162672599
 20
1.235592902580354
 30
0.0
  0
VERTEX
  5
3AA
  8
IMPORT_-_POUR_GUYS_INC_FIN
 10
1.309266633452352
 20
1.239678966239086
 30
0.0
  0
VERTEX
  5
3AB
  8
IMPORT_-_POUR_GUYS_INC_FIN
 10
1.304588061114408
 20
1.244145088555198
 30
0.0
  0
VERTEX
  5
3AC
  8
IMPORT_-_POUR_GUYS_INC_FIN
 10
1.295756644996589
 20
1.25390538515136
 30
0.0
  0
VERTEX
  5
3AD
  8
IMPORT_-_POUR_GUYS_INC_FIN
 10
1.287420309874508
 20
1.264249544352423
 30
0.0
  0
VERTEX
  5
3AE
  8
IMPORT_-_POUR_GUYS_INC_FIN
 10
1.279331987250138
 20
1.274553318141975
 30
0.0
  0
VERTEX
  5
3AF
  8
IMPORT_-_POUR_GUYS_INC_FIN
 10
1.271244608625455
 20
1.2841924585036
 30
0.0
  0
VERTEX
  5
3B0
  8
IMPORT_-_POUR_GUYS_INC_FIN
 10
1.267124064407362
 20
1.288567713643811
 30
0.0
  0
VERTEX
  5
3B1
  8
IMPORT_-_POUR_GUYS_INC_FIN
 10
1.262911105502432
 20
1.292542717420884
 30
0.0
  0
VERTEX
  5
3B2
  8
IMPORT_-_POUR_GUYS_INC_FIN
 10
1.25857484834841
 20
1.296039438832768
 30
0.0
  0
VERTEX
  5
3B3
  8
IMPORT_-_POUR_GUYS_INC_FIN
 10
1.254084409383044
 20
1.298979846877411
 30
0.0
  0
VERTEX
  5
3B4
  8
IMPORT_-_POUR_GUYS_INC_FIN
 10
1.24940890504408
 20
1.301285910552761
 30
0.0
  0
VERTEX
  5
3B5
  8
IMPORT_-_POUR_GUYS_INC_FIN
 10
1.244517451769265
 20
1.302879598856767
 30
0.0
  0
VERTEX
  5
3B6
  8
IMPORT_-_POUR_GUYS_INC_FIN
 10
1.242099480243921
 20
1.302879598856767
 30
0.0
  0
VERTEX
  5
3B7
  8
IMPORT_-_POUR_GUYS_INC_FIN
 10
1.239513502296052
 20
1.297863386495349
 30
0.0
  0
VERTEX
  5
3B8
  8
IMPORT_-_POUR_GUYS_INC_FIN
 10
1.237931776075432
 20
1.292831062485341
 30
0.0
  0
VERTEX
  5
3B9
  8
IMPORT_-_POUR_GUYS_INC_FIN
 10
1.237135725420621
 20
1.287777814349974
 30
0.0
  0
VERTEX
  5
3BA
  8
IMPORT_-_POUR_GUYS_INC_FIN
 10
1.236906774170178
 20
1.282698829612475
 30
0.0
  0
VERTEX
  5
3BB
  8
IMPORT_-_POUR_GUYS_INC_FIN
 10
1.237275865236633
 20
1.272444400423993
 30
0.0
  0
VERTEX
  5
3BC
  8
IMPORT_-_POUR_GUYS_INC_FIN
 10
1.23743675523065
 20
1.267259331019467
 30
0.0
  0
VERTEX
  5
3BD
  8
IMPORT_-_POUR_GUYS_INC_FIN
 10
1.237290439983272
 20
1.262029275105721
 30
0.0
  0
VERTEX
  5
3BE
  8
IMPORT_-_POUR_GUYS_INC_FIN
 10
1.2359455582997
 20
1.251001949577039
 30
0.0
  0
VERTEX
  5
3BF
  8
IMPORT_-_POUR_GUYS_INC_FIN
 10
1.233689527158185
 20
1.239941187723593
 30
0.0
  0
VERTEX
  5
3C0
  8
IMPORT_-_POUR_GUYS_INC_FIN
 10
1.230832775931366
 20
1.229115825282993
 30
0.0
  0
VERTEX
  5
3C1
  8
IMPORT_-_POUR_GUYS_INC_FIN
 10
1.227685733991881
 20
1.218794697992848
 30
0.0
  0
VERTEX
  5
3C2
  8
IMPORT_-_POUR_GUYS_INC_FIN
 10
1.223733553999418
 20
1.208872127530356
 30
0.0
  0
VERTEX
  5
3C3
  8
IMPORT_-_POUR_GUYS_INC_FIN
 10
1.219154846459491
 20
1.199314887348462
 30
0.0
  0
VERTEX
  5
3C4
  8
IMPORT_-_POUR_GUYS_INC_FIN
 10
1.217033732409685
 20
1.194692155114093
 30
0.0
  0
VERTEX
  5
3C5
  8
IMPORT_-_POUR_GUYS_INC_FIN
 10
1.215239811533561
 20
1.1901834222515
 30
0.0
  0
VERTEX
  5
3C6
  8
IMPORT_-_POUR_GUYS_INC_FIN
 10
1.213934358851301
 20
1.185796244361224
 30
0.0
  0
VERTEX
  5
3C7
  8
IMPORT_-_POUR_GUYS_INC_FIN
 10
1.213278649383088
 20
1.181538177043807
 30
0.0
  0
VERTEX
  5
3C8
  8
IMPORT_-_POUR_GUYS_INC_FIN
 10
1.213207766623995
 20
1.177584285626553
 30
0.0
  0
VERTEX
  5
3C9
  8
IMPORT_-_POUR_GUYS_INC_FIN
 10
1.213517280233367
 20
1.17359286496732
 30
0.0
  0
VERTEX
  5
3CA
  8
IMPORT_-_POUR_GUYS_INC_FIN
 10
1.215131056204148
 20
1.165552524790105
 30
0.0
  0
VERTEX
  5
3CB
  8
IMPORT_-_POUR_GUYS_INC_FIN
 10
1.217827096588714
 20
1.157527334246531
 30
0.0
  0
VERTEX
  5
3CC
  8
IMPORT_-_POUR_GUYS_INC_FIN
 10
1.22131252068035
 20
1.149627471070966
 30
0.0
  0
VERTEX
  5
3CD
  8
IMPORT_-_POUR_GUYS_INC_FIN
 10
1.229479997157967
 20
1.134644437761341
 30
0.0
  0
SEQEND
  5
3D7
  8
IMPORT_-_POUR_GUYS_INC_FIN
  0
ENDSEC
  0
EOF
